<svg width="1179" height="748" viewBox="0 0 1179 748" fill="none" xmlns="http://www.w3.org/2000/svg">
<mask id="mask0_10_224" style="mask-type:alpha" maskUnits="userSpaceOnUse" x="0" y="0" width="1179" height="748">
<rect width="1179" height="748" rx="64" fill="#1A1A1A"/>
</mask>
<g mask="url(#mask0_10_224)">
<g style="mix-blend-mode:soft-light">
<path d="M114.068 846.59L-376.76 -369.932L328.834 737.749L114.068 846.59ZM615.888 1186.5L330.28 738.133L1202.81 295.946L615.888 1186.5Z" stroke="url(#paint0_linear_10_224)"/>
<path d="M140.554 866.292L-399.331 -323.84L350.662 746.573L140.554 866.292ZM655.701 1180.16L352.122 746.883L1205.72 260.501L655.701 1180.16Z" stroke="url(#paint1_linear_10_224)"/>
<path d="M167.395 884.35L-419.703 -277.374L372.488 754.161L167.395 884.35ZM694.615 1171.93L373.958 754.398L1207.18 225.486L694.615 1171.93Z" stroke="url(#paint2_linear_10_224)"/>
<path d="M195.105 901.133L-438.293 -229.628L394.731 760.677L195.105 901.133ZM733.395 1161.69L396.209 760.84L1207.22 190.217L733.395 1161.69Z" stroke="url(#paint3_linear_10_224)"/>
<path d="M221.101 915.284L-453.642 -185.034L415.353 765.659L221.101 915.284ZM768.58 1150.57L416.836 765.755L1206.01 157.888L768.58 1150.57Z" stroke="url(#paint4_linear_10_224)"/>
<path d="M246.276 927.602L-466.694 -142.022L435.11 769.501L246.276 927.602ZM801.613 1138.49L436.593 769.533L1203.75 127.233L801.613 1138.49Z" stroke="url(#paint5_linear_10_224)"/>
<path d="M270.434 938.202L-477.611 -100.899L453.879 772.323L270.434 938.202ZM832.398 1125.75L455.363 772.294L1200.62 98.3952L832.398 1125.75Z" stroke="url(#paint6_linear_10_224)"/>
<path d="M299.94 949.611L-488.937 -50.861L476.564 774.678L299.94 949.611ZM868.844 1108.72L478.047 774.577L1195.59 63.9036L868.844 1108.72Z" stroke="url(#paint7_linear_10_224)"/>
<path d="M331.133 959.905L-498.59 1.81787L500.275 775.914L331.133 959.905ZM906.048 1089.06L501.75 775.74L1188.89 28.2772L906.048 1089.06Z" stroke="url(#paint8_linear_10_224)"/>
<path d="M360.065 967.894L-505.497 50.4831L522.026 775.956L360.065 967.894ZM939.387 1069.35L523.494 775.713L1181.46 -4.02889L939.387 1069.35Z" stroke="url(#paint9_linear_10_224)"/>
<path d="M388.625 974.359L-510.453 98.3548L543.277 774.988L388.625 974.359ZM971.231 1048.55L544.735 774.679L1172.99 -35.2478L971.231 1048.55Z" stroke="url(#paint10_linear_10_224)"/>
<path d="M420.8 979.99L-513.867 152.072L566.962 772.728L420.8 979.99ZM1005.86 1023.55L568.405 772.347L1162.17 -69.6289L1005.86 1023.55Z" stroke="url(#paint11_linear_10_224)"/>
<path d="M448.509 983.467L-515.009 198.172L587.147 769.807L448.509 983.467ZM1034.66 1000.73L588.577 769.364L1151.77 -98.5918L1034.66 1000.73Z" stroke="url(#paint12_linear_10_224)"/>
<path d="M476.216 985.692L-514.507 244.109L607.137 765.999L476.216 985.692ZM1062.52 976.724L608.55 765.497L1140.39 -126.956L1062.52 976.724Z" stroke="url(#paint13_linear_10_224)"/>
<path d="M505.102 986.689L-512.25 291.84L627.772 761.091L505.102 986.689ZM1090.57 950.447L629.167 760.527L1127.48 -155.901L1090.57 950.447Z" stroke="url(#paint14_linear_10_224)"/>
<path d="M534.671 986.316L-508.112 340.526L648.68 755.08L534.671 986.316ZM1118.24 922.232L650.054 754.452L1113.18 -184.872L1118.24 922.232Z" stroke="url(#paint15_linear_10_224)"/>
<path d="M571.952 983.835L-500.256 401.665L674.73 746.073L571.952 983.835ZM1151.61 884.758L676.073 745.369L1093.57 -220.444L1151.61 884.758Z" stroke="url(#paint16_linear_10_224)"/>
<path d="M607.306 979.391L-490.066 459.383L699.109 736.048L607.306 979.391ZM1181.69 847.243L700.421 735.274L1073.33 -253.187L1181.69 847.243Z" stroke="url(#paint17_linear_10_224)"/>
<path d="M640.61 973.311L-477.976 513.526L721.781 725.264L640.61 973.311ZM1208.6 810.114L723.06 724.422L1052.77 -283.129L1208.6 810.114Z" stroke="url(#paint18_linear_10_224)"/>
<path d="M671.807 965.906L-464.412 564.031L742.755 713.949L671.807 965.906ZM1232.54 773.719L744.001 713.046L1032.18 -310.375L1232.54 773.719Z" stroke="url(#paint19_linear_10_224)"/>
<path d="M701.504 957.28L-449.431 611.913L762.476 702.06L701.504 957.28ZM1254.13 737.583L763.687 701.101L1011.34 -335.555L1254.13 737.583Z" stroke="url(#paint20_linear_10_224)"/>
<path d="M732.201 946.684L-431.737 661.204L782.6 688.581L732.201 946.684ZM1275.2 698.642L783.773 687.562L988.483 -360.793L1275.2 698.642Z" stroke="url(#paint21_linear_10_224)"/>
<path d="M760.21 935.468L-413.564 705.985L800.723 675.184L760.21 935.468ZM1293.25 661.649L801.859 674.114L966.412 -383.083L1293.25 661.649Z" stroke="url(#paint22_linear_10_224)"/>
<path d="M789.243 922.202L-392.574 752.207L819.254 660.135L789.243 922.202ZM1310.74 621.751L820.349 659.011L942.244 -405.417L1310.74 621.751Z" stroke="url(#paint23_linear_10_224)"/>
<path d="M816.602 908.093L-370.682 795.565L836.468 644.813L816.602 908.093ZM1326.02 582.635L837.521 643.639L918.209 -425.699L1326.02 582.635Z" stroke="url(#paint24_linear_10_224)"/>
<path d="M839.459 895.037L-350.723 831.627L850.653 631.114L839.459 895.037ZM1337.82 548.758L851.669 629.899L897.136 -442.041L1337.82 548.758Z" stroke="url(#paint25_linear_10_224)"/>
<path d="M862.839 880.415L-328.651 868.362L864.966 616.203L862.839 880.415ZM1348.95 512.908L865.942 614.947L874.584 -458.158L1348.95 512.908Z" stroke="url(#paint26_linear_10_224)"/>
<path d="M893.416 859.213L-297.049 916.146L883.365 595.227L893.416 859.213ZM1361.94 464.058L884.284 593.919L843.462 -478.25L1361.94 464.058Z" stroke="url(#paint27_linear_10_224)"/>
<path d="M916.354 841.628L-271.14 951.787L896.906 578.302L916.354 841.628ZM1370.43 425.822L897.78 576.953L818.794 -492.532L1370.43 425.822Z" stroke="url(#paint28_linear_10_224)"/>
<path d="M937.886 823.694L-244.945 985.065L909.397 561.402L937.886 823.694ZM1377.33 388.583L910.226 560.017L794.522 -505.257L1377.33 388.583Z" stroke="url(#paint29_linear_10_224)"/>
<path d="M962.689 801.154L-212.296 1023.17L923.494 540.601L962.689 801.154ZM1383.86 343.908L924.267 539.176L765.082 -519.029L1383.86 343.908Z" stroke="url(#paint30_linear_10_224)"/>
<path d="M985.431 778.52L-179.786 1057.86L936.115 520.134L985.431 778.52ZM1388.37 301.085L936.834 518.674L736.546 -530.722L1388.37 301.085Z" stroke="url(#paint31_linear_10_224)"/>
<path d="M1003.29 759.276L-152.32 1084.93L945.8 503.02L1003.29 759.276ZM1390.82 266.069L946.473 501.532L712.983 -539.207L1390.82 266.069Z" stroke="url(#paint32_linear_10_224)"/>
<path d="M1019.54 740.51L-125.681 1109.39L954.417 486.558L1019.54 740.51ZM1392.1 233.022L955.046 485.046L690.562 -546.335L1392.1 233.022Z" stroke="url(#paint33_linear_10_224)"/>
<path d="M1036.16 719.939L-96.63 1134.25L963.018 468.743L1036.16 719.939ZM1392.37 197.919L963.6 467.207L666.543 -552.974L1392.37 197.919Z" stroke="url(#paint34_linear_10_224)"/>
<path d="M1051.84 699.096L-67.3308 1157.53L970.912 450.919L1051.84 699.096ZM1391.56 163.439L971.446 449.36L642.754 -558.562L1391.56 163.439Z" stroke="url(#paint35_linear_10_224)"/>
<path d="M1067.89 676.144L-35.222 1181.13L978.736 431.53L1067.89 676.144ZM1389.5 126.634L979.218 429.95L617.148 -563.5L1389.5 126.634Z" stroke="url(#paint36_linear_10_224)"/>
<path d="M1080.75 656.366L-7.67389 1199.9L984.797 415.007L1080.75 656.366ZM1386.83 95.8168L985.235 413.412L595.529 -566.816L1386.83 95.8168Z" stroke="url(#paint37_linear_10_224)"/>
<path d="M1094.65 633.441L24.1339 1219.96L991.1 396.055L1094.65 633.441ZM1382.76 61.059L991.487 394.443L570.957 -569.652L1382.76 61.059Z" stroke="url(#paint38_linear_10_224)"/>
<path d="M1107.52 610.504L55.8324 1238.35L996.679 377.292L1107.52 610.504ZM1377.72 27.2514L997.015 375.666L546.859 -571.475L1377.72 27.2514Z" stroke="url(#paint39_linear_10_224)"/>
<path d="M1121.33 583.73L92.6822 1257.8L1002.33 355.627L1121.33 583.73ZM1370.69 -11.0688L1002.61 353.988L519.303 -572.412L1370.69 -11.0688Z" stroke="url(#paint40_linear_10_224)"/>
<path d="M1133.27 558.403L127.398 1274.36L1006.88 335.351L1133.27 558.403ZM1362.97 -46.255L1007.1 333.702L493.771 -572.184L1362.97 -46.255Z" stroke="url(#paint41_linear_10_224)"/>
<path d="M1146.11 528.34L168.447 1291.79L1011.33 311.543L1146.11 528.34ZM1352.55 -86.7635L1011.49 309.885L464.096 -570.598L1352.55 -86.7635Z" stroke="url(#paint42_linear_10_224)"/>
<path d="M1156.98 499.936L207.075 1306.19L1014.64 289.296L1156.98 499.936ZM1341.52 -123.85L1014.74 287.631L436.656 -567.859L1341.52 -123.85Z" stroke="url(#paint43_linear_10_224)"/>
<path d="M1169.01 464.219L255.444 1321.59L1017.65 261.636L1169.01 464.219ZM1326.09 -168.939L1017.67 259.969L402.927 -562.799L1326.09 -168.939Z" stroke="url(#paint44_linear_10_224)"/>
</g>
</g>
<defs>
<linearGradient id="paint0_linear_10_224" x1="1057.27" y1="-69.5572" x2="-72.2369" y2="386.164" gradientUnits="userSpaceOnUse">
<stop stop-color="white"/>
<stop offset="1" stop-color="white" stop-opacity="0"/>
</linearGradient>
<linearGradient id="paint1_linear_10_224" x1="1045.44" y1="-97.1733" x2="-67.939" y2="407.896" gradientUnits="userSpaceOnUse">
<stop stop-color="white"/>
<stop offset="1" stop-color="white" stop-opacity="0"/>
</linearGradient>
<linearGradient id="paint2_linear_10_224" x1="1032.71" y1="-123.75" x2="-62.8303" y2="429.902" gradientUnits="userSpaceOnUse">
<stop stop-color="white"/>
<stop offset="1" stop-color="white" stop-opacity="0"/>
</linearGradient>
<linearGradient id="paint3_linear_10_224" x1="1018.83" y1="-149.814" x2="-56.6939" y2="452.645" gradientUnits="userSpaceOnUse">
<stop stop-color="white"/>
<stop offset="1" stop-color="white" stop-opacity="0"/>
</linearGradient>
<linearGradient id="paint4_linear_10_224" x1="1005.19" y1="-173.086" x2="-50.0791" y2="474.031" gradientUnits="userSpaceOnUse">
<stop stop-color="white"/>
<stop offset="1" stop-color="white" stop-opacity="0"/>
</linearGradient>
<linearGradient id="paint5_linear_10_224" x1="991.427" y1="-194.602" x2="-42.8267" y2="494.792" gradientUnits="userSpaceOnUse">
<stop stop-color="white"/>
<stop offset="1" stop-color="white" stop-opacity="0"/>
</linearGradient>
<linearGradient id="paint6_linear_10_224" x1="977.75" y1="-214.347" x2="-35.0322" y2="514.752" gradientUnits="userSpaceOnUse">
<stop stop-color="white"/>
<stop offset="1" stop-color="white" stop-opacity="0"/>
</linearGradient>
<linearGradient id="paint7_linear_10_224" x1="960.431" y1="-237.325" x2="-24.3415" y2="539.172" gradientUnits="userSpaceOnUse">
<stop stop-color="white"/>
<stop offset="1" stop-color="white" stop-opacity="0"/>
</linearGradient>
<linearGradient id="paint8_linear_10_224" x1="941.432" y1="-260.315" x2="-11.5503" y2="564.987" gradientUnits="userSpaceOnUse">
<stop stop-color="white"/>
<stop offset="1" stop-color="white" stop-opacity="0"/>
</linearGradient>
<linearGradient id="paint9_linear_10_224" x1="923.201" y1="-280.486" x2="1.76265" y2="588.875" gradientUnits="userSpaceOnUse">
<stop stop-color="white"/>
<stop offset="1" stop-color="white" stop-opacity="0"/>
</linearGradient>
<linearGradient id="paint10_linear_10_224" x1="904.64" y1="-299.349" x2="16.3425" y2="612.346" gradientUnits="userSpaceOnUse">
<stop stop-color="white"/>
<stop offset="1" stop-color="white" stop-opacity="0"/>
</linearGradient>
<linearGradient id="paint11_linear_10_224" x1="883.088" y1="-319.376" x2="34.5637" y2="638.554" gradientUnits="userSpaceOnUse">
<stop stop-color="white"/>
<stop offset="1" stop-color="white" stop-opacity="0"/>
</linearGradient>
<linearGradient id="paint12_linear_10_224" x1="863.983" y1="-335.613" x2="51.8456" y2="660.84" gradientUnits="userSpaceOnUse">
<stop stop-color="white"/>
<stop offset="1" stop-color="white" stop-opacity="0"/>
</linearGradient>
<linearGradient id="paint13_linear_10_224" x1="844.392" y1="-350.92" x2="70.6528" y2="682.762" gradientUnits="userSpaceOnUse">
<stop stop-color="white"/>
<stop offset="1" stop-color="white" stop-opacity="0"/>
</linearGradient>
<linearGradient id="paint14_linear_10_224" x1="823.445" y1="-365.903" x2="91.9361" y2="705.124" gradientUnits="userSpaceOnUse">
<stop stop-color="white"/>
<stop offset="1" stop-color="white" stop-opacity="0"/>
</linearGradient>
<linearGradient id="paint15_linear_10_224" x1="801.458" y1="-380.212" x2="115.543" y2="727.362" gradientUnits="userSpaceOnUse">
<stop stop-color="white"/>
<stop offset="1" stop-color="white" stop-opacity="0"/>
</linearGradient>
<linearGradient id="paint16_linear_10_224" x1="772.945" y1="-396.767" x2="147.994" y2="754.231" gradientUnits="userSpaceOnUse">
<stop stop-color="white"/>
<stop offset="1" stop-color="white" stop-opacity="0"/>
</linearGradient>
<linearGradient id="paint17_linear_10_224" x1="745.085" y1="-410.921" x2="181.586" y2="778.23" gradientUnits="userSpaceOnUse">
<stop stop-color="white"/>
<stop offset="1" stop-color="white" stop-opacity="0"/>
</linearGradient>
<linearGradient id="paint18_linear_10_224" x1="718.096" y1="-422.853" x2="215.764" y2="799.243" gradientUnits="userSpaceOnUse">
<stop stop-color="white"/>
<stop offset="1" stop-color="white" stop-opacity="0"/>
</linearGradient>
<linearGradient id="paint19_linear_10_224" x1="692.145" y1="-432.772" x2="250.012" y2="817.269" gradientUnits="userSpaceOnUse">
<stop stop-color="white"/>
<stop offset="1" stop-color="white" stop-opacity="0"/>
</linearGradient>
<linearGradient id="paint20_linear_10_224" x1="666.822" y1="-441.044" x2="284.597" y2="832.718" gradientUnits="userSpaceOnUse">
<stop stop-color="white"/>
<stop offset="1" stop-color="white" stop-opacity="0"/>
</linearGradient>
<linearGradient id="paint21_linear_10_224" x1="639.985" y1="-448.358" x2="322.347" y2="846.693" gradientUnits="userSpaceOnUse">
<stop stop-color="white"/>
<stop offset="1" stop-color="white" stop-opacity="0"/>
</linearGradient>
<linearGradient id="paint22_linear_10_224" x1="614.893" y1="-453.886" x2="358.513" y2="857.461" gradientUnits="userSpaceOnUse">
<stop stop-color="white"/>
<stop offset="1" stop-color="white" stop-opacity="0"/>
</linearGradient>
<linearGradient id="paint23_linear_10_224" x1="588.235" y1="-458.406" x2="397.672" y2="866.401" gradientUnits="userSpaceOnUse">
<stop stop-color="white"/>
<stop offset="1" stop-color="white" stop-opacity="0"/>
</linearGradient>
<linearGradient id="paint24_linear_10_224" x1="562.485" y1="-461.476" x2="436.049" y2="872.544" gradientUnits="userSpaceOnUse">
<stop stop-color="white"/>
<stop offset="1" stop-color="white" stop-opacity="0"/>
</linearGradient>
<linearGradient id="paint25_linear_10_224" x1="540.476" y1="-463.105" x2="469.141" y2="875.825" gradientUnits="userSpaceOnUse">
<stop stop-color="white"/>
<stop offset="1" stop-color="white" stop-opacity="0"/>
</linearGradient>
<linearGradient id="paint26_linear_10_224" x1="517.465" y1="-463.834" x2="503.898" y2="877.3" gradientUnits="userSpaceOnUse">
<stop stop-color="white"/>
<stop offset="1" stop-color="white" stop-opacity="0"/>
</linearGradient>
<linearGradient id="paint27_linear_10_224" x1="486.555" y1="-463.252" x2="550.609" y2="876.122" gradientUnits="userSpaceOnUse">
<stop stop-color="white"/>
<stop offset="1" stop-color="white" stop-opacity="0"/>
</linearGradient>
<linearGradient id="paint28_linear_10_224" x1="462.705" y1="-461.577" x2="586.486" y2="872.743" gradientUnits="userSpaceOnUse">
<stop stop-color="white"/>
<stop offset="1" stop-color="white" stop-opacity="0"/>
</linearGradient>
<linearGradient id="paint29_linear_10_224" x1="439.76" y1="-458.949" x2="620.722" y2="867.48" gradientUnits="userSpaceOnUse">
<stop stop-color="white"/>
<stop offset="1" stop-color="white" stop-opacity="0"/>
</linearGradient>
<linearGradient id="paint30_linear_10_224" x1="412.589" y1="-454.53" x2="660.73" y2="858.728" gradientUnits="userSpaceOnUse">
<stop stop-color="white"/>
<stop offset="1" stop-color="white" stop-opacity="0"/>
</linearGradient>
<linearGradient id="paint31_linear_10_224" x1="386.903" y1="-449.027" x2="697.843" y2="847.987" gradientUnits="userSpaceOnUse">
<stop stop-color="white"/>
<stop offset="1" stop-color="white" stop-opacity="0"/>
</linearGradient>
<linearGradient id="paint32_linear_10_224" x1="366.155" y1="-443.617" x2="727.204" y2="837.603" gradientUnits="userSpaceOnUse">
<stop stop-color="white"/>
<stop offset="1" stop-color="white" stop-opacity="0"/>
</linearGradient>
<linearGradient id="paint33_linear_10_224" x1="346.786" y1="-437.772" x2="754.033" y2="826.561" gradientUnits="userSpaceOnUse">
<stop stop-color="white"/>
<stop offset="1" stop-color="white" stop-opacity="0"/>
</linearGradient>
<linearGradient id="paint34_linear_10_224" x1="326.431" y1="-430.774" x2="781.552" y2="813.596" gradientUnits="userSpaceOnUse">
<stop stop-color="white"/>
<stop offset="1" stop-color="white" stop-opacity="0"/>
</linearGradient>
<linearGradient id="paint35_linear_10_224" x1="306.661" y1="-423.111" x2="807.547" y2="799.706" gradientUnits="userSpaceOnUse">
<stop stop-color="white"/>
<stop offset="1" stop-color="white" stop-opacity="0"/>
</linearGradient>
<linearGradient id="paint36_linear_10_224" x1="285.805" y1="-414.07" x2="834.128" y2="783.705" gradientUnits="userSpaceOnUse">
<stop stop-color="white"/>
<stop offset="1" stop-color="white" stop-opacity="0"/>
</linearGradient>
<linearGradient id="paint37_linear_10_224" x1="268.533" y1="-405.806" x2="855.424" y2="769.447" gradientUnits="userSpaceOnUse">
<stop stop-color="white"/>
<stop offset="1" stop-color="white" stop-opacity="0"/>
</linearGradient>
<linearGradient id="paint38_linear_10_224" x1="249.271" y1="-395.724" x2="878.372" y2="752.502" gradientUnits="userSpaceOnUse">
<stop stop-color="white"/>
<stop offset="1" stop-color="white" stop-opacity="0"/>
</linearGradient>
<linearGradient id="paint39_linear_10_224" x1="230.757" y1="-385.13" x2="899.587" y2="735.213" gradientUnits="userSpaceOnUse">
<stop stop-color="white"/>
<stop offset="1" stop-color="white" stop-opacity="0"/>
</linearGradient>
<linearGradient id="paint40_linear_10_224" x1="210.044" y1="-372.167" x2="922.298" y2="714.748" gradientUnits="userSpaceOnUse">
<stop stop-color="white"/>
<stop offset="1" stop-color="white" stop-opacity="0"/>
</linearGradient>
<linearGradient id="paint41_linear_10_224" x1="191.281" y1="-359.348" x2="941.894" y2="695.225" gradientUnits="userSpaceOnUse">
<stop stop-color="white"/>
<stop offset="1" stop-color="white" stop-opacity="0"/>
</linearGradient>
<linearGradient id="paint42_linear_10_224" x1="169.996" y1="-343.472" x2="962.959" y2="671.983" gradientUnits="userSpaceOnUse">
<stop stop-color="white"/>
<stop offset="1" stop-color="white" stop-opacity="0"/>
</linearGradient>
<linearGradient id="paint43_linear_10_224" x1="150.816" y1="-327.853" x2="980.852" y2="650.07" gradientUnits="userSpaceOnUse">
<stop stop-color="white"/>
<stop offset="1" stop-color="white" stop-opacity="0"/>
</linearGradient>
<linearGradient id="paint44_linear_10_224" x1="127.911" y1="-307.404" x2="1000.83" y2="622.722" gradientUnits="userSpaceOnUse">
<stop stop-color="white"/>
<stop offset="1" stop-color="white" stop-opacity="0"/>
</linearGradient>
</defs>
</svg>
