<svg width="1440" height="876" viewBox="0 0 1440 876" fill="none" xmlns="http://www.w3.org/2000/svg">
<mask id="mask0_4_427" style="mask-type:alpha" maskUnits="userSpaceOnUse" x="0" y="0" width="1440" height="876">
<rect width="1440" height="876" rx="64" fill="#1A1A1A"/>
</mask>
<g mask="url(#mask0_4_427)">
<g style="mix-blend-mode:soft-light" opacity="0.2">
<path d="M318.731 241.316C361.071 115.769 399.871 -1.65737 442.108 -104.564C484.346 -207.472 529.987 -295.772 585.966 -363.08C641.927 -430.366 708.204 -476.656 791.749 -495.606C875.317 -514.56 976.293 -506.189 1101.69 -463.899C1164.45 -442.732 1214.2 -425.3 1252.88 -410.018C1291.58 -394.729 1319.13 -381.62 1337.55 -369.112C1355.97 -356.6 1365.06 -344.823 1367.21 -332.259C1369.37 -319.666 1364.61 -305.929 1354.46 -289.336C1313.88 -223.052 1188.88 -114.372 1104.16 136.832C1061.79 262.46 1033.47 411.899 1006.97 562.663C980.459 713.467 955.779 865.592 920.707 996.737C885.625 1127.91 840.202 1237.87 772.349 1304.46C738.448 1337.74 698.955 1360.18 652.336 1369.06C605.707 1377.94 551.861 1373.26 489.242 1352.14C363.881 1309.87 280.067 1250.68 227.429 1177.95C174.793 1105.21 153.242 1018.8 152.633 921.895C151.415 727.988 234.033 492.462 318.731 241.316Z" stroke="url(#paint0_linear_4_427)" stroke-width="2.41377"/>
<path d="M338.562 202.813C393.927 82.4418 444.915 -30.2288 497.787 -128.097C550.66 -225.968 605.373 -308.952 668.149 -369.97C730.906 -430.968 801.701 -469.998 886.78 -480.016C971.883 -490.036 1071.41 -471.044 1191.64 -415.744C1251.81 -388.066 1299.44 -365.476 1336.29 -346.193C1373.15 -326.902 1399.17 -310.956 1416.16 -296.573C1433.16 -282.184 1440.96 -269.512 1441.77 -256.792C1442.58 -244.041 1436.4 -230.883 1424.55 -215.456C1377.2 -153.83 1241.41 -58.9628 1130.63 181.886C1075.23 302.335 1031.28 447.946 988.999 595.067C946.709 742.227 906.098 890.893 857.367 1017.6C808.625 1144.34 751.84 1248.87 677.331 1307.93C640.105 1337.44 598.462 1355.59 551.166 1359.49C503.86 1363.39 450.81 1353.05 390.772 1325.44C270.579 1270.16 193.486 1202.45 148.826 1124.56C104.168 1046.67 91.8662 958.463 101.498 862.038C120.771 669.088 227.807 443.607 338.562 202.813Z" stroke="url(#paint1_linear_4_427)" stroke-width="2.41377"/>
<path d="M355.757 175.844C420.351 60.1627 479.979 -48.1836 540.33 -141.626C600.682 -235.07 661.706 -313.53 729.054 -369.461C796.381 -425.374 870.008 -458.758 955.609 -462.103C1041.23 -465.449 1138.97 -438.745 1254.52 -374.228C1312.35 -341.937 1358.07 -315.698 1393.3 -293.597C1428.55 -271.487 1453.23 -253.559 1469.05 -237.893C1484.88 -222.221 1491.66 -208.978 1491.48 -196.234C1491.29 -183.459 1484.1 -170.824 1471.08 -156.369C1419.06 -98.6277 1276.29 -14.65 1147.04 216.815C1082.41 332.572 1027.22 474.307 973.587 617.679C919.938 761.088 867.845 906.13 809.372 1028.65C750.884 1151.19 686.112 1250.98 607.22 1304.04C567.803 1330.55 524.871 1345.39 477.415 1345.59C429.948 1345.79 377.867 1331.34 320.168 1299.12C204.657 1234.62 133.085 1161.1 94.6432 1079.96C56.202 998.826 50.8233 909.929 67.953 814.55C102.23 623.694 226.542 407.257 355.757 175.844Z" stroke="url(#paint2_linear_4_427)" stroke-width="2.41377"/>
<path d="M372.383 153.545C444.683 42.5163 511.531 -61.531 578.087 -150.66C644.645 -239.79 710.856 -313.925 781.847 -365.154C852.815 -416.366 928.538 -444.673 1014.17 -442.198C1099.82 -439.723 1195.53 -406.443 1306.42 -334.229C1361.93 -298.085 1405.76 -268.803 1439.41 -244.361C1473.07 -219.909 1496.48 -200.345 1511.2 -183.641C1525.93 -166.931 1531.8 -153.258 1530.75 -140.556C1529.7 -127.823 1521.67 -115.705 1507.69 -102.168C1451.87 -48.0921 1303.72 25.9969 1159.06 248.152C1086.72 359.253 1022.03 496.914 958.785 636.313C895.523 775.748 833.701 916.917 767.043 1035.18C700.37 1153.47 628.971 1248.63 546.658 1296.21C505.533 1319.98 461.691 1331.88 414.331 1328.85C366.96 1325.83 315.981 1307.87 260.603 1271.81C149.739 1199.62 83.3238 1121.41 50.48 1037.85C17.6371 954.287 18.3072 865.23 41.8738 771.234C89.0315 583.145 227.754 375.65 372.383 153.545Z" stroke="url(#paint3_linear_4_427)" stroke-width="2.41377"/>
<path d="M390.521 132.388C470.206 26.5348 543.977 -72.7238 616.443 -157.118C688.91 -241.515 760.01 -310.973 834.322 -357.254C908.609 -403.52 986.083 -426.61 1071.35 -418.315C1156.64 -410.018 1249.85 -370.305 1355.58 -290.714C1408.5 -250.878 1450.23 -218.682 1482.14 -192.007C1514.06 -165.322 1536.09 -144.211 1549.64 -126.544C1563.2 -108.871 1568.12 -94.8307 1566.21 -82.2291C1564.29 -69.5971 1555.46 -58.0537 1540.6 -45.4985C1481.23 4.65458 1328.38 68.4936 1168.94 280.292C1089.2 386.214 1015.3 519.156 942.721 653.93C870.12 788.738 798.838 925.375 724.29 1038.83C649.723 1152.31 572.016 1242.39 486.657 1284.26C444.01 1305.18 399.461 1314.06 352.416 1307.82C305.361 1301.58 255.721 1280.2 202.925 1240.46C97.2281 1160.89 36.2876 1078.35 9.20464 992.743C-17.8776 907.141 -11.1507 818.336 18.7559 726.161C78.5998 541.717 231.116 344.139 390.521 132.388Z" stroke="url(#paint4_linear_4_427)" stroke-width="2.41377"/>
<path d="M406.94 115.504C492.58 14.4082 571.937 -80.4442 649.135 -160.532C726.335 -240.622 801.312 -305.877 878.162 -347.809C954.987 -389.726 1033.66 -408.323 1118.31 -395.139C1202.98 -381.952 1293.75 -336.945 1394.73 -251.406C1445.27 -208.593 1485.08 -174.051 1515.41 -145.585C1545.74 -117.108 1566.52 -94.7655 1579.03 -76.3489C1591.55 -57.9252 1595.66 -43.6253 1593.02 -31.1544C1590.38 -18.6535 1580.9 -7.63729 1565.34 4.04253C1503.19 50.6989 1346.92 105.644 1175.57 307.924C1089.87 409.086 1008.45 537.558 928.238 667.935C848.005 798.346 768.984 930.658 688.035 1039.64C607.067 1148.64 524.309 1234.1 436.684 1271C392.904 1289.43 347.918 1295.74 301.31 1286.81C254.691 1277.87 206.363 1253.67 155.939 1210.96C54.9927 1125.44 -1.10052 1039.53 -23.2164 952.509C-45.3317 865.492 -33.5095 777.221 1.64767 686.918C71.9984 506.22 235.623 317.739 406.94 115.504Z" stroke="url(#paint5_linear_4_427)" stroke-width="2.41377"/>
<path d="M428.63 95.9047C521.265 1.17769 607.188 -87.7702 689.905 -162.145C772.623 -236.522 852.065 -296.261 931.711 -332.601C1011.33 -368.93 1091.13 -381.866 1174.62 -362.675C1258.13 -343.48 1345.47 -292.11 1440.08 -199.584C1487.44 -153.273 1524.69 -115.978 1552.9 -85.4205C1581.13 -54.8517 1600.26 -31.0832 1611.42 -11.8208C1622.59 7.44905 1625.67 22.0057 1622.16 34.2569C1618.63 46.5376 1608.38 56.8489 1592.03 67.3887C1526.71 109.491 1366.92 153.145 1181.57 342.682C1088.87 437.47 998.49 559.805 909.179 684.126C819.844 808.479 731.583 934.815 643.064 1037.74C554.523 1140.69 465.878 1220.03 375.843 1250.58C330.86 1265.84 285.538 1268.92 239.687 1256.68C193.825 1244.44 147.346 1216.86 100.099 1170.65C5.51217 1078.15 -44.3075 988.457 -60.1574 900.081C-76.007 811.708 -57.916 724.505 -16.4047 636.941C66.661 461.724 243.318 285.399 428.63 95.9047Z" stroke="url(#paint6_linear_4_427)" stroke-width="2.41377"/>
<path d="M453.984 76.2309C553.754 -10.9495 646.38 -92.8943 734.667 -160.562C822.957 -228.232 906.835 -281.565 989.082 -311.555C1071.3 -341.536 1151.87 -348.182 1233.6 -322.511C1315.35 -296.833 1398.4 -238.781 1485.48 -139.128C1529.06 -89.2513 1563.27 -49.1525 1589.01 -16.4795C1614.75 16.2061 1631.96 41.4001 1641.58 61.4777C1651.21 81.5632 1653.14 96.3163 1648.67 108.254C1644.2 120.221 1633.17 129.698 1616.04 138.925C1547.62 175.781 1384.91 206.786 1185.28 381.223C1085.44 468.46 985.759 583.34 886.985 700.283C788.185 817.257 690.299 936.292 593.991 1031.97C497.658 1127.67 403.072 1199.82 310.921 1223.22C264.88 1234.91 219.457 1234.43 174.704 1218.64C129.942 1202.85 85.767 1171.71 42.2839 1121.95C-44.7678 1022.32 -87.409 928.998 -96.2883 839.653C-105.167 750.31 -80.302 664.792 -32.0597 580.749C64.4745 412.575 254.4 250.629 453.984 76.2309Z" stroke="url(#paint7_linear_4_427)" stroke-width="2.41377"/>
<path d="M481.476 58.1972C587.921 -20.6958 686.823 -94.9433 780.257 -155.308C873.692 -215.674 961.579 -262.104 1045.97 -285.398C1130.33 -308.684 1211.17 -308.843 1290.58 -276.697C1370.01 -244.541 1448.12 -180.011 1526.92 -73.6924C1566.36 -20.4789 1597.25 22.2355 1620.28 56.8683C1643.32 91.5144 1658.45 118.008 1666.43 138.793C1674.41 159.586 1675.15 174.447 1669.74 185.988C1664.32 197.557 1652.57 206.119 1634.76 213.941C1563.6 245.188 1398.92 263.035 1185.94 420.89C1079.42 499.835 970.841 606.345 863.001 714.985C755.133 823.653 648.011 934.449 544.336 1022.09C440.635 1109.75 340.563 1174.08 246.831 1190.01C200.001 1197.97 154.762 1193.85 111.422 1174.51C68.0707 1155.18 26.5377 1120.59 -12.8119 1067.5C-91.5883 961.213 -126.603 864.769 -128.284 774.999C-129.965 685.232 -98.317 601.985 -43.4862 522.084C66.2322 362.2 268.541 216.017 481.476 58.1972Z" stroke="url(#paint8_linear_4_427)" stroke-width="2.41377"/>
<path d="M507.892 43.6433C619.855 -27.1993 723.956 -93.9644 821.579 -147.287C919.205 -200.611 1010.27 -240.445 1096.15 -257.463C1181.99 -274.476 1262.63 -268.683 1339.45 -230.778C1416.3 -192.862 1489.45 -122.757 1560.21 -10.9257C1595.63 45.0468 1623.28 89.919 1643.7 126.153C1664.13 162.401 1677.27 189.938 1683.7 211.254C1690.13 232.578 1689.77 247.453 1683.52 258.565C1677.27 269.703 1664.92 277.377 1646.58 283.867C1573.31 309.79 1407.77 315.466 1183.74 457.213C1071.71 528.102 955.577 626.329 840.031 726.735C724.456 827.168 609.468 929.777 499.622 1009.55C389.749 1089.33 285.213 1146.12 190.563 1155.11C143.273 1159.6 98.4611 1152.16 56.661 1129.69C14.8512 1107.21 -24.023 1069.66 -59.3573 1013.82C-130.095 902.022 -157.915 803.261 -152.983 713.611C-148.051 623.964 -110.36 543.273 -49.7962 467.625C71.3949 316.252 283.916 185.359 507.892 43.6433Z" stroke="url(#paint9_linear_4_427)" stroke-width="2.41377"/>
<path d="M537.241 30.2796C654.433 -31.5308 763.465 -89.8952 864.983 -135.369C966.503 -180.843 1060.42 -213.386 1147.37 -223.592C1234.29 -233.795 1314.22 -221.674 1387.82 -177.84C1461.44 -133.993 1528.85 -58.3476 1590.59 58.7063C1621.49 117.293 1645.53 164.202 1663.03 201.931C1680.54 239.675 1691.47 268.16 1696.2 289.915C1700.94 311.68 1699.41 326.48 1692.31 337.066C1685.19 347.677 1672.28 354.356 1653.49 359.381C1578.41 379.458 1412.93 372.086 1178.44 495.761C1061.17 557.612 937.674 646.394 814.584 737.395C691.463 828.419 568.756 921.659 452.973 992.535C337.16 1063.43 228.479 1111.81 133.415 1113.32C85.9185 1114.08 41.8314 1103.13 1.92948 1077.44C-37.9817 1051.75 -73.7798 1011.25 -104.609 952.8C-166.328 835.78 -186.288 735.137 -174.315 646.153C-162.343 557.172 -118.418 479.698 -52.0877 409.052C80.6416 267.687 302.806 153.927 537.241 30.2796Z" stroke="url(#paint10_linear_4_427)" stroke-width="2.41377"/>
<path d="M568.296 19.0289C690.09 -33.1333 803.472 -82.5185 908.325 -119.66C1013.18 -156.803 1109.42 -181.669 1196.91 -184.833C1284.36 -187.996 1363.05 -169.471 1432.88 -119.846C1502.73 -70.208 1563.83 10.6257 1615.93 132.275C1642 193.162 1662.18 241.857 1676.59 280.874C1691 319.906 1699.6 349.179 1702.56 371.246C1705.52 393.321 1702.81 407.95 1694.88 417.929C1686.93 427.932 1673.52 433.548 1654.38 437.042C1577.93 451.001 1413.58 430.314 1169.89 534.684C1048.02 586.88 917.761 665.418 787.736 746.2C657.677 827.003 527.853 910.048 406.733 971.359C285.583 1032.69 173.355 1072.15 78.4788 1065.99C31.0762 1062.92 -11.985 1048.45 -49.6862 1019.63C-87.3962 990.8 -119.814 947.553 -145.831 886.806C-197.916 765.192 -209.698 663.267 -190.591 575.538C-171.484 487.812 -121.457 414.131 -49.6476 349.061C94.0455 218.856 324.657 123.376 568.296 19.0289Z" stroke="url(#paint11_linear_4_427)" stroke-width="2.41377"/>
<path d="M597.629 10.9103C722.961 -32.0596 839.699 -72.8851 947.021 -102.135C1054.35 -131.385 1152.16 -149.033 1239.65 -145.689C1327.1 -142.345 1404.19 -118.026 1470.14 -63.3503C1536.11 -8.66 1591.03 76.4885 1633.95 201.673C1655.43 264.328 1671.94 314.388 1683.4 354.367C1694.87 394.362 1701.28 424.194 1702.59 446.419C1703.9 468.653 1700.11 483.04 1691.46 492.402C1682.79 501.787 1669 506.392 1649.66 508.455C1572.38 516.695 1410.02 483.856 1159.25 569.833C1033.84 612.831 898.107 681.475 762.44 752.374C626.738 823.292 491.103 896.463 365.763 948.606C240.391 1000.76 125.542 1031.78 31.3849 1018.59C-15.6582 1012 -57.5258 994.379 -92.9816 962.836C-128.446 931.285 -157.561 885.749 -178.993 823.237C-221.899 698.089 -226.077 595.571 -200.505 509.504C-174.934 423.439 -119.571 353.678 -43.1261 294.123C109.843 174.953 346.91 96.8685 597.629 10.9103Z" stroke="url(#paint12_linear_4_427)" stroke-width="2.41377"/>
<path d="M629.78 4.63172C758.146 -28.1802 877.775 -59.5417 987.092 -80.1173C1096.41 -100.693 1195.33 -110.464 1282.26 -100.136C1369.17 -89.8117 1444.07 -59.4057 1505.44 0.367208C1566.82 60.1567 1614.76 149.423 1647.53 277.638C1663.94 341.811 1676.39 393.03 1684.62 433.798C1692.85 474.581 1696.85 504.83 1696.38 527.089C1695.92 549.357 1690.98 563.394 1681.62 572.035C1672.22 580.697 1658.11 584.184 1638.66 584.694C1560.97 586.729 1401.76 541.015 1144.92 606.668C1016.47 639.501 875.684 697.073 734.783 756.899C593.846 816.74 452.795 878.833 323.687 920.788C194.547 962.754 77.5848 984.491 -15.2162 963.816C-61.5819 953.487 -101.906 932.572 -134.727 898.295C-167.555 864.009 -192.936 816.291 -209.302 752.266C-242.065 624.089 -238.033 521.565 -205.662 437.818C-173.291 354.073 -112.529 288.961 -31.5668 235.709C130.44 129.15 372.992 70.2696 629.78 4.63172Z" stroke="url(#paint13_linear_4_427)" stroke-width="2.41377"/>
<path d="M659.824 1.13454C790.263 -22.1104 911.88 -44.554 1022.42 -57.0023C1132.96 -69.451 1232.33 -71.8919 1318.26 -55.1738C1404.17 -38.4612 1476.62 -2.60785 1533.41 61.5328C1590.21 125.691 1631.43 218.253 1654.64 348.538C1666.26 413.747 1674.9 465.745 1680.1 507.01C1685.3 548.29 1687.05 578.751 1684.94 600.915C1682.83 623.087 1676.88 636.722 1666.9 644.648C1656.89 652.593 1642.56 655.029 1623.13 654.101C1545.5 650.395 1390.1 593.05 1129.11 639.561C998.583 662.821 853.934 709.842 709 759.101C564.029 808.373 418.778 859.882 286.925 892.191C155.039 924.508 36.7918 937.55 -54.2296 910.08C-99.7061 896.356 -138.376 872.521 -168.576 835.914C-198.783 799.299 -220.572 749.837 -232.166 684.778C-255.377 554.532 -243.786 452.585 -205.32 371.456C-166.855 290.33 -101.451 229.883 -16.7784 182.753C152.654 88.4462 398.891 47.6343 659.824 1.13454Z" stroke="url(#paint14_linear_4_427)" stroke-width="2.41377"/>
<path d="M689.537 -0.131341C821.319 -13.846 944.244 -27.4018 1055.39 -31.793C1166.55 -36.1843 1265.83 -31.4054 1350.32 -8.49321C1434.79 14.4115 1504.45 55.4301 1556.43 123.524C1608.43 191.636 1642.81 286.946 1656.51 418.573C1663.37 484.453 1668.21 536.941 1670.4 578.474C1672.59 620.023 1672.13 650.531 1668.41 672.483C1664.7 694.444 1657.77 707.611 1647.24 714.791C1636.68 721.988 1622.21 723.377 1602.9 721.041C1525.74 711.71 1374.92 643.236 1111.24 670.677C979.368 684.4 831.686 720.797 683.559 759.405C535.394 798.023 386.788 838.853 252.937 861.505C119.053 884.162 0.170993 888.586 -88.6161 854.581C-132.976 837.591 -169.814 811.012 -197.277 772.31C-224.747 733.598 -242.887 682.685 -249.728 616.956C-263.422 485.368 -244.461 384.532 -200.208 306.41C-155.955 228.29 -86.3352 172.75 1.53516 131.892C177.367 50.1329 425.916 27.3038 689.537 -0.131341Z" stroke="url(#paint15_linear_4_427)" stroke-width="2.41377"/>
<path d="M722.813 1.0138C855.274 -1.94674 978.894 -5.46867 1090.03 -0.813204C1201.18 3.84238 1299.74 16.6733 1382.09 46.3757C1464.42 76.0684 1530.52 122.612 1576.79 194.705C1623.08 266.817 1649.61 364.606 1652.57 496.91C1654.05 563.13 1654.6 615.837 1653.41 657.411C1652.22 699.001 1649.28 729.37 1643.79 750.948C1638.31 772.534 1630.33 785.095 1619.25 791.395C1608.15 797.711 1593.61 797.92 1574.55 794.022C1498.41 778.451 1353.64 697.948 1088.61 703.871C956.06 706.834 805.91 731.109 655.135 757.553C504.322 784.003 352.889 812.622 217.64 824.322C82.3579 836.025 -36.4907 830.773 -122.221 789.666C-165.054 769.128 -199.61 739.643 -223.837 698.837C-248.07 658.021 -262.014 605.802 -263.49 539.735C-266.446 407.47 -239.354 308.507 -188.898 234.24C-138.444 159.974 -64.5413 110.275 26.3586 76.6925C208.252 9.4924 457.835 6.93615 722.813 1.0138Z" stroke="url(#paint16_linear_4_427)" stroke-width="2.41377"/>
<path d="M761.842 5.84433C893.975 15.6064 1017.36 23.9615 1127.54 39.2588C1237.73 54.5564 1334.61 76.785 1413.73 114.252C1492.83 151.706 1554.15 204.377 1593.3 280.577C1632.46 356.798 1649.48 456.681 1639.73 588.658C1634.85 654.714 1630.34 707.232 1625.17 748.5C1619.99 789.783 1614.15 819.73 1606.62 840.682C1599.09 861.643 1589.94 873.38 1578.31 878.588C1566.65 883.809 1552.16 882.622 1533.56 876.914C1459.27 854.11 1322.9 760.088 1058.51 740.555C926.293 730.787 774.506 740.544 621.89 752.4C469.234 764.258 315.754 778.215 180.007 776.885C44.2259 775.555 -73.5705 758.924 -154.961 709.781C-195.626 685.228 -227.194 652.564 -247.394 609.622C-267.599 566.669 -276.468 513.354 -271.599 447.449C-261.852 315.511 -225.389 219.604 -168.041 150.52C-110.694 81.4381 -32.3635 39.0589 61.3391 14.3525C248.841 -35.0857 497.518 -13.684 761.842 5.84433Z" stroke="url(#paint17_linear_4_427)" stroke-width="2.41377"/>
<path d="M795.852 13.2258C926.679 34.1749 1048.91 52.9794 1157.39 77.5792C1265.88 102.18 1360.52 132.556 1436.18 176.607C1511.81 220.644 1568.44 278.334 1600.97 357.583C1633.51 436.854 1641.99 537.822 1621.07 668.494C1610.59 733.897 1601.64 785.843 1592.98 826.522C1584.32 867.216 1575.96 896.559 1566.68 916.796C1557.39 937.041 1547.28 947.959 1535.25 952.161C1523.19 956.372 1508.85 953.959 1490.8 946.692C1418.71 917.66 1290.82 812.396 1029.05 770.479C898.138 749.516 746.071 746.347 593 745.197C439.889 744.048 285.778 744.919 150.634 732.064C15.4563 719.206 -100.502 692.631 -177.425 636.753C-215.857 608.835 -244.537 573.608 -261.017 529.105C-277.501 484.592 -281.81 430.715 -271.361 365.463C-250.443 234.829 -205.967 142.366 -142.958 78.4022C-79.9507 14.4402 1.69571 -21.1331 97.1582 -37.7919C288.182 -71.1266 534.142 -28.6815 795.852 13.2258Z" stroke="url(#paint18_linear_4_427)" stroke-width="2.41377"/>
<path d="M829.003 23.4291C957.587 55.3768 1077.79 84.4601 1183.8 118.154C1289.81 151.849 1381.55 190.127 1453.2 240.424C1524.83 290.705 1576.38 352.981 1602.08 434.699C1627.8 516.44 1627.7 617.763 1595.79 746.196C1579.82 810.477 1566.51 861.479 1554.43 901.279C1542.36 941.094 1531.54 969.624 1520.58 989.003C1509.61 1008.39 1498.62 1018.41 1486.27 1021.58C1473.89 1024.76 1459.81 1021.14 1442.45 1012.37C1373.07 977.339 1254.55 861.627 997.267 797.703C868.599 765.735 717.345 749.705 564.92 735.603C412.456 721.498 258.825 709.321 125.254 685.074C-8.3497 660.82 -121.642 624.525 -193.559 562.337C-229.491 531.266 -255.086 493.737 -267.74 447.999C-280.397 402.25 -280.13 348.203 -264.195 284.068C-232.295 155.674 -180.152 67.3074 -111.955 8.90669C-43.7599 -49.4925 40.6046 -78.0273 137.135 -86.5459C330.294 -103.592 571.779 -40.48 829.003 23.4291Z" stroke="url(#paint19_linear_4_427)" stroke-width="2.41377"/>
<path d="M864.4 37.8837C989.443 81.6878 1106.41 121.858 1208.81 165.295C1311.22 208.733 1398.98 255.402 1465.63 312.164C1532.26 368.908 1577.77 435.721 1595.74 519.481C1613.72 603.265 1604.17 704.137 1560.42 829.032C1538.52 891.543 1520.51 941.081 1504.77 979.581C1489.03 1018.1 1475.6 1045.49 1462.88 1063.76C1450.15 1082.04 1438.27 1091 1425.68 1093C1413.06 1095.01 1399.38 1090.09 1382.91 1079.74C1317.11 1038.39 1209.89 912.126 959.698 824.479C834.574 780.646 685.476 750.576 535.031 722.316C384.548 694.049 232.722 667.593 101.996 630.99C-28.7631 594.378 -138.176 547.673 -203.978 479.046C-236.854 444.759 -258.836 405.006 -267.168 358.287C-275.502 311.557 -270.194 257.77 -248.346 195.402C-204.606 70.5432 -144.447 -12.5736 -71.0994 -64.3575C2.24642 -116.14 88.905 -136.68 185.809 -136.156C379.716 -135.108 614.26 -49.7432 864.4 37.8837Z" stroke="url(#paint20_linear_4_427)" stroke-width="2.41377"/>
<path d="M895.855 54.1654C1016.64 108.613 1129.7 158.743 1227.97 210.869C1326.24 262.996 1409.64 317.075 1471.13 379.386C1532.6 441.676 1572.17 512.173 1582.83 597.174C1593.5 682.197 1575.27 781.866 1520.88 902.512C1493.66 962.897 1471.44 1010.69 1452.44 1047.69C1433.43 1084.7 1417.68 1110.83 1403.42 1127.93C1389.17 1145.05 1376.55 1152.94 1363.84 1153.85C1351.1 1154.75 1337.89 1148.67 1322.37 1136.94C1260.39 1090.06 1164.49 954.998 922.808 846.054C801.94 791.57 656 748.726 508.561 707.568C361.083 666.399 212.113 626.919 85.0395 579.155C-42.0654 531.378 -147.032 475.39 -206.656 401.333C-236.445 364.332 -254.909 322.828 -259.172 275.563C-263.435 228.288 -253.498 175.161 -226.341 114.915C-171.973 -5.69589 -104.855 -83.3018 -27.3061 -128.552C50.2409 -173.801 138.351 -186.774 234.846 -177.877C427.937 -160.072 654.225 -54.7542 895.855 54.1654Z" stroke="url(#paint21_linear_4_427)" stroke-width="2.41377"/>
<path d="M921.975 70.4888C1038.33 133.864 1147.3 192.351 1241.37 251.716C1335.44 311.084 1414.54 371.28 1471.17 438.037C1527.79 504.773 1561.94 578.045 1566.19 663.606C1570.43 749.192 1544.76 847.208 1481.46 963.424C1449.78 1021.59 1424.02 1067.58 1402.29 1103.04C1380.55 1138.52 1362.88 1163.39 1347.38 1179.38C1331.88 1195.37 1318.71 1202.29 1305.96 1202.24C1293.19 1202.19 1280.48 1195.13 1265.89 1182.26C1207.6 1130.85 1122.13 988.968 889.318 862.162C772.889 798.746 630.582 745.052 486.654 692.926C342.689 640.787 197.108 590.219 73.9855 533.036C-49.1679 475.839 -149.628 412.119 -203.516 333.789C-230.439 294.653 -245.731 251.878 -246.428 204.427C-247.125 156.965 -233.222 104.735 -201.613 46.7015C-138.332 -69.4807 -65.5692 -141.821 15.1622 -181.113C95.8915 -220.405 184.727 -226.717 280.281 -210.59C471.487 -178.32 689.217 -56.2878 921.975 70.4888Z" stroke="url(#paint22_linear_4_427)" stroke-width="2.41377"/>
<path d="M953.323 94.0285C1063.08 168.241 1165.95 236.882 1253.92 304.973C1341.88 373.066 1414.86 440.552 1464.85 512.42C1514.82 584.265 1541.81 660.468 1537.85 746.043C1533.89 831.642 1498.96 926.752 1424.84 1036.38C1387.74 1091.25 1357.7 1134.57 1332.68 1167.79C1307.64 1201.02 1287.68 1224.09 1270.72 1238.52C1253.76 1252.96 1239.99 1258.59 1227.3 1257.32C1214.59 1256.04 1202.61 1247.8 1189.32 1233.6C1136.22 1176.85 1064.71 1027.44 845.096 878.949C735.266 804.688 598.747 737.628 460.465 671.976C322.147 606.306 182.07 542.046 64.9811 473.35C-52.1371 404.636 -146.042 331.599 -192.191 248.474C-215.248 206.942 -226.378 162.901 -222.534 115.601C-218.688 68.2894 -199.854 17.6292 -162.838 -37.1154C-88.7351 -146.712 -9.38713 -211.762 74.7323 -243.152C158.85 -274.542 247.882 -272.329 341.455 -247.137C528.698 -196.726 733.758 -54.4291 953.323 94.0285Z" stroke="url(#paint23_linear_4_427)" stroke-width="2.41377"/>
<path d="M979.7 117.891C1082.6 201.351 1179.13 278.663 1260.85 354.132C1342.57 429.603 1409.41 503.168 1452.98 579.104C1496.53 655.015 1516.8 733.274 1505.43 818.182C1494.05 903.114 1451 994.833 1367.64 1097.61C1325.91 1149.06 1292.23 1189.6 1264.42 1220.53C1236.6 1251.46 1214.7 1272.71 1196.56 1285.62C1178.41 1298.52 1164.2 1302.94 1151.67 1300.57C1139.12 1298.2 1127.9 1288.95 1115.89 1273.65C1067.92 1212.5 1009.65 1057.45 803.751 890.456C700.781 806.941 570.597 728.285 438.536 650.877C306.44 573.449 172.47 497.274 61.7856 418.673C-48.9262 340.052 -136.137 259.14 -174.896 172.323C-194.261 128.947 -201.527 84.1063 -193.591 37.3181C-185.654 -9.48094 -162.493 -58.3152 -120.866 -109.64C-37.529 -212.391 47.1658 -270.308 133.692 -294.278C220.217 -318.248 308.721 -308.315 399.754 -275.096C581.915 -208.623 773.85 -49.0639 979.7 117.891Z" stroke="url(#paint24_linear_4_427)" stroke-width="2.41377"/>
<path d="M1004.33 144.455C1099.45 236.685 1188.77 322.226 1263.5 404.624C1338.23 487.023 1398.3 566.21 1434.98 645.699C1471.65 725.163 1484.93 804.907 1466.1 888.478C1447.26 972.072 1396.26 1059.63 1304.14 1154.64C1258.04 1202.19 1220.9 1239.6 1190.46 1267.94C1160.02 1296.3 1136.33 1315.53 1117.11 1326.78C1097.89 1338.03 1083.35 1341.17 1071.08 1337.71C1058.79 1334.23 1048.43 1324.03 1037.82 1307.72C995.442 1242.58 951.105 1082.98 760.776 898.441C665.592 806.152 542.872 716.295 418.17 627.516C293.436 538.714 166.724 450.994 63.4212 362.917C-39.9072 274.817 -119.624 186.512 -150.557 96.6089C-166.012 51.6909 -169.285 6.38336 -157.245 -39.5202C-145.201 -85.4343 -117.814 -132.03 -71.8129 -179.474C20.2807 -274.456 109.764 -324.659 198.07 -340.887C286.375 -357.115 373.654 -339.397 461.395 -298.26C636.966 -215.945 814.045 -40.0435 1004.33 144.455Z" stroke="url(#paint25_linear_4_427)" stroke-width="2.41377"/>
<path d="M1028.2 175.503C1114.08 276.4 1194.81 370.084 1261.32 459.246C1327.84 548.409 1380.07 632.973 1408.99 715.605C1437.9 798.209 1443.5 878.857 1416.76 960.246C1390.02 1041.66 1330.89 1123.94 1230.12 1209.71C1179.68 1252.64 1139.14 1286.33 1106.13 1311.64C1073.11 1336.95 1047.7 1353.83 1027.5 1363.19C1007.29 1372.56 992.509 1374.29 980.63 1369.67C968.723 1365.04 959.39 1353.9 950.387 1336.65C914.425 1267.75 885.541 1104.65 713.718 902.766C627.788 801.803 514.216 700.631 398.568 600.343C282.89 500.028 165.139 400.601 70.7257 303.055C-23.7115 205.485 -94.6257 109.967 -116.826 17.5194C-127.918 -28.6699 -126.847 -74.0829 -110.475 -118.626C-94.0998 -163.179 -62.3855 -206.945 -12.061 -249.776C88.6872 -335.523 182.558 -376.946 272.011 -384.661C361.462 -392.377 446.649 -366.4 530.057 -317.068C696.96 -218.352 856.42 -26.3346 1028.2 175.503Z" stroke="url(#paint26_linear_4_427)" stroke-width="2.41377"/>
<path d="M1048.28 207.41C1124.51 315.779 1196.28 416.492 1254.31 511.394C1312.34 606.297 1356.58 695.308 1377.77 780.249C1398.96 865.162 1397.11 945.983 1363.01 1024.57C1328.89 1103.17 1262.45 1179.67 1154.21 1255.81C1100.03 1293.91 1056.56 1323.73 1021.37 1345.89C986.163 1368.07 959.302 1382.54 938.326 1390C917.341 1397.46 902.467 1397.83 891.063 1392.14C879.632 1386.43 871.364 1374.48 863.986 1356.48C834.514 1284.56 820.756 1119.49 668.231 902.661C591.952 794.222 488.168 683.032 382.236 572.531C276.276 462.001 168.17 352.164 83.1299 246.348C-1.93186 140.504 -63.7591 38.868 -77.3618 -55.23C-84.158 -102.244 -78.9141 -147.366 -58.5144 -190.214C-38.1099 -233.072 -2.50424 -273.734 51.5467 -311.755C159.755 -387.872 257.038 -420.484 346.822 -419.938C436.604 -419.392 519.04 -385.69 597.557 -328.894C754.671 -215.245 895.792 -9.37332 1048.28 207.41Z" stroke="url(#paint27_linear_4_427)" stroke-width="2.41377"/>
<path d="M1067.6 246.137C1131.96 361.947 1192.7 469.674 1240.39 570.171C1288.08 670.67 1322.67 763.854 1334.78 850.557C1346.89 937.232 1336.52 1017.41 1294.31 1091.95C1252.09 1166.52 1177.94 1235.57 1062.26 1299.86C1004.37 1332.03 957.995 1357.09 920.658 1375.42C883.308 1393.75 855.069 1405.31 833.422 1410.51C811.767 1415.72 796.937 1414.52 786.198 1407.65C775.433 1400.77 768.473 1388.01 763.037 1369.33C741.32 1294.71 745.064 1129.11 616.281 897.385C551.876 781.5 460.409 659.975 366.733 538.909C273.033 417.811 177.126 297.176 103.73 182.974C30.317 68.7428 -20.436 -38.8523 -24.0295 -133.861C-25.8249 -181.329 -15.8471 -225.645 8.96172 -266.101C33.7764 -306.565 73.4755 -343.242 131.238 -375.345C246.877 -439.613 347.059 -461.774 436.284 -451.753C525.506 -441.733 603.924 -399.517 676.007 -334.75C820.246 -205.15 938.846 14.4677 1067.6 246.137Z" stroke="url(#paint28_linear_4_427)" stroke-width="2.41377"/>
<path d="M1081.34 282.381C1134.47 403.758 1184.75 516.747 1222.72 621.303C1260.69 725.862 1286.31 821.899 1290.17 909.359C1294.02 996.791 1276.12 1075.63 1227.04 1145.84C1177.96 1216.08 1097.61 1277.81 976.377 1330.87C915.698 1357.43 867.164 1377.99 828.262 1392.71C789.345 1407.42 760.14 1416.25 738.098 1419.39C716.047 1422.53 701.397 1419.93 691.356 1412.08C681.29 1404.21 675.568 1390.84 671.923 1371.73C657.361 1295.39 676.749 1130.89 570.457 888.027C517.3 766.57 437.736 636.941 355.93 507.558C274.102 378.141 190.034 248.977 127.768 128.345C65.4864 7.68292 25.1364 -104.23 30.5442 -199.152C33.2461 -246.577 47.3701 -289.752 75.8938 -327.679C104.424 -365.616 147.414 -398.374 207.954 -424.87C329.152 -477.914 430.981 -490.501 518.858 -472.087C606.733 -453.674 680.807 -404.231 746.441 -332.937C877.778 -190.277 975.077 39.573 1081.34 282.381Z" stroke="url(#paint29_linear_4_427)" stroke-width="2.41377"/>
<path d="M1092.03 321.707C1132.82 447.765 1171.62 565.193 1199.01 673.006C1226.39 780.821 1242.34 878.93 1237.48 966.34C1232.63 1053.72 1206.97 1130.39 1151.17 1195.38C1095.34 1260.39 1009.25 1313.83 883.344 1354.57C820.326 1374.96 769.988 1390.6 729.816 1401.37C689.629 1412.15 659.69 1418.03 637.446 1418.96C615.192 1419.89 600.873 1415.84 591.662 1407.03C582.429 1398.2 578.064 1384.34 576.336 1364.96C569.436 1287.55 605.083 1125.79 523.462 873.562C482.643 747.422 416.361 610.525 347.822 473.65C279.266 336.74 208.456 199.857 158.491 73.6328C108.514 -52.6233 79.4902 -167.993 94.308 -261.907C101.711 -308.829 120.058 -350.385 152.211 -385.289C184.371 -420.201 230.405 -448.523 293.279 -468.869C419.15 -509.602 521.726 -512.003 607.337 -484.944C692.946 -457.885 761.738 -401.323 819.959 -323.857C936.462 -168.847 1010.43 69.5376 1092.03 321.707Z" stroke="url(#paint30_linear_4_427)" stroke-width="2.41377"/>
<path d="M1097.67 353.375C1128.44 482.246 1157.9 602.357 1176.74 711.987C1195.57 821.62 1203.77 920.679 1192.07 1007.44C1180.36 1094.17 1148.77 1168.58 1088.03 1228.99C1027.28 1289.42 937.26 1335.93 808.541 1366.66C744.116 1382.05 692.706 1393.68 651.813 1401.27C610.904 1408.85 580.596 1412.37 558.347 1411.55C536.089 1410.73 522.132 1405.58 513.64 1396.07C505.129 1386.54 501.866 1372.38 501.665 1352.92C500.863 1275.21 549.099 1116.75 487.533 858.89C456.743 729.935 401.412 588.255 343.831 446.422C286.235 304.552 226.389 162.534 186.489 32.7762C146.578 -97.0137 126.701 -214.306 148.846 -306.767C159.91 -352.963 181.462 -392.95 216.256 -425.222C251.058 -457.502 299.173 -482.122 363.451 -497.47C492.132 -528.194 594.579 -522.535 677.802 -488.838C761.022 -455.143 825.161 -393.354 877.121 -311.557C981.095 -147.879 1036.12 95.5771 1097.67 353.375Z" stroke="url(#paint31_linear_4_427)" stroke-width="2.41377"/>
<path d="M1100.66 382.97C1121.99 513.735 1142.65 635.668 1153.48 746.377C1164.3 857.088 1165.29 956.481 1147.31 1042.16C1129.34 1127.81 1092.43 1199.74 1027.47 1255.58C962.483 1311.43 869.327 1351.29 738.716 1372.59C673.344 1383.26 621.225 1391.13 579.889 1395.72C538.537 1400.32 508.053 1401.63 485.923 1399.19C463.783 1396.76 450.237 1390.6 442.458 1380.51C434.661 1370.38 432.436 1356.02 433.648 1336.6C438.491 1259.04 498.106 1104.49 455.425 842.848C434.079 711.998 389.182 566.675 342.052 421.035C294.909 275.357 245.533 129.368 215.16 -2.9437C184.779 -135.289 173.471 -253.715 202.271 -344.324C216.66 -389.595 241.059 -427.911 278.105 -457.572C315.159 -487.239 364.934 -508.301 430.156 -518.941C560.728 -540.24 662.495 -527.157 743.051 -487.507C823.605 -447.857 883.087 -381.575 928.971 -296.221C1020.79 -125.425 1057.99 121.383 1100.66 382.97Z" stroke="url(#paint32_linear_4_427)" stroke-width="2.41377"/>
<path d="M1101.5 409.426C1114.34 541.296 1127.08 664.309 1130.73 775.486C1134.38 886.666 1128.94 985.914 1105.46 1070.25C1082 1154.56 1040.52 1223.95 972.078 1275.48C903.621 1327.02 808.084 1360.77 676.37 1373.59C610.445 1380.01 557.926 1384.5 516.38 1386.41C474.817 1388.33 444.313 1387.66 422.386 1383.8C400.45 1379.94 387.33 1372.92 380.22 1362.35C373.093 1351.74 371.8 1337.26 374.265 1317.96C384.11 1240.87 453.586 1090.51 427.901 826.649C415.056 694.693 379.643 546.772 342.022 398.391C304.391 249.972 264.552 101.098 242.792 -32.9006C221.026 -166.932 217.394 -285.842 251.99 -374.4C269.274 -418.646 296.098 -455.307 334.983 -482.511C373.876 -509.722 424.909 -527.524 490.682 -533.926C622.358 -546.744 723.066 -527.113 800.891 -482.34C878.715 -437.568 933.79 -367.58 974.063 -279.44C1054.65 -103.068 1075.82 145.629 1101.5 409.426Z" stroke="url(#paint33_linear_4_427)" stroke-width="2.41377"/>
<path d="M1100.14 442.644C1102.23 575.121 1104.95 698.762 1099.57 809.868C1094.19 920.978 1080.71 1019.46 1050.47 1101.61C1020.24 1183.74 973.266 1249.54 900.873 1295.34C828.459 1341.16 730.499 1367.04 598.178 1369.14C531.951 1370.18 479.241 1370.4 437.676 1368.93C396.095 1367.47 365.745 1364.33 344.203 1358.7C322.653 1353.08 310.146 1345.02 303.917 1333.9C297.674 1322.75 297.561 1308.21 301.583 1289.18C317.651 1213.14 399.099 1068.91 394.907 803.837C392.811 671.273 369.517 520.968 344.059 370.024C318.595 219.041 290.966 67.424 280.15 -67.8983C269.331 -203.254 275.359 -322.066 317.026 -407.526C337.844 -450.224 367.553 -484.586 408.517 -508.546C449.49 -532.512 501.799 -546.114 567.875 -547.159C700.156 -549.251 798.94 -521.512 872.876 -470.573C946.81 -419.634 996.025 -345.408 1029.01 -254.291C1095.02 -71.9617 1095.95 177.633 1100.14 442.644Z" stroke="url(#paint34_linear_4_427)" stroke-width="2.41377"/>
<path d="M1093.94 487.574C1081.37 619.47 1070.39 742.652 1052.75 852.482C1035.11 962.314 1010.83 1058.7 971.687 1137.01C932.558 1215.29 878.594 1275.48 801.578 1313C724.541 1350.52 624.318 1365.41 492.578 1352.86C426.641 1346.57 374.231 1340.95 333.083 1334.9C291.919 1328.85 262.103 1322.37 241.316 1314.4C220.52 1306.42 208.981 1297.03 204.021 1285.28C199.049 1273.52 200.544 1259.06 206.648 1240.58C231.027 1166.79 327.93 1032.45 353.085 768.541C365.665 636.559 359.14 484.6 350.535 331.766C341.928 178.892 331.24 25.15 335.459 -110.538C339.679 -246.26 358.813 -363.676 409.677 -444.002C435.089 -484.136 468.418 -515.001 511.781 -534.283C555.154 -553.569 608.646 -561.302 674.432 -555.031C806.133 -542.478 901.242 -503.983 969.089 -445.177C1036.94 -386.373 1077.64 -307.158 1100.34 -212.951C1145.78 -24.4395 1119.09 223.725 1093.94 487.574Z" stroke="url(#paint35_linear_4_427)" stroke-width="2.41377"/>
<path d="M1086.38 519.502C1063.29 649.968 1042.48 771.876 1016.1 879.94C989.722 988.007 957.796 1082.14 912.509 1157.06C867.236 1231.96 808.625 1287.63 728.852 1318.86C649.058 1350.1 547.964 1356.91 417.653 1333.85C352.431 1322.3 300.639 1312.5 260.108 1303.18C219.561 1293.84 190.359 1285 170.277 1275.39C150.188 1265.77 139.437 1255.49 135.434 1243.38C131.421 1231.25 134.069 1216.96 141.632 1199.04C171.843 1127.43 279.193 1001.28 325.401 740.238C348.51 609.688 354.175 457.693 357.837 304.66C361.5 151.589 363.159 -2.5149 378.23 -137.429C393.305 -272.378 421.78 -387.884 478.914 -463.879C507.459 -501.848 543.152 -529.946 587.92 -545.693C632.698 -561.444 686.637 -564.868 751.71 -553.349C881.983 -530.289 973.703 -484.301 1036.62 -420.251C1099.54 -356.202 1133.77 -273.983 1148.86 -178.26C1179.05 13.285 1132.58 258.516 1086.38 519.502Z" stroke="url(#paint36_linear_4_427)" stroke-width="2.41377"/>
<path d="M1075.6 552.56C1041.52 680.595 1010.45 800.298 974.994 905.734C939.542 1011.17 899.744 1102.25 848.262 1173.06C796.798 1243.85 733.674 1294.35 651.539 1318.7C569.382 1343.05 468.075 1341.27 340.19 1307.23C276.183 1290.19 225.41 1276.03 185.816 1263.3C146.207 1250.56 117.861 1239.27 98.6674 1227.99C79.4663 1216.7 69.6273 1205.54 66.6649 1193.14C63.6955 1180.72 67.5469 1166.7 76.6036 1149.48C112.782 1080.7 230.448 964.112 298.64 707.929C332.743 579.81 351.285 428.845 367.919 276.675C384.557 124.467 399.286 -28.9414 425.75 -162.091C452.222 -295.273 490.395 -407.947 553.771 -478.82C585.435 -514.23 623.384 -539.197 669.326 -551.089C715.279 -562.984 769.314 -561.818 833.175 -544.82C961.021 -510.789 1048.51 -457.185 1105.77 -388.026C1163.03 -318.87 1190.15 -234.043 1197.07 -137.384C1210.9 56.0318 1143.78 296.434 1075.6 552.56Z" stroke="url(#paint37_linear_4_427)" stroke-width="2.41377"/>
<path d="M1064.11 580.199C1020.76 705.402 981.023 822.514 937.962 925.078C894.9 1027.64 848.553 1115.58 792.036 1182.43C735.537 1249.27 668.891 1295.03 585.197 1313.3C501.48 1331.59 400.574 1322.41 275.519 1279.11C212.928 1257.44 163.324 1239.61 124.767 1224.02C86.1946 1208.42 58.749 1195.09 40.431 1182.44C22.1059 1169.78 13.1088 1157.93 11.0601 1145.35C9.00666 1132.74 13.872 1119.04 24.1626 1102.53C65.2699 1036.57 191.14 928.897 277.869 678.381C321.242 553.097 350.765 403.889 378.474 253.342C406.189 102.756 432.087 -49.1652 468.211 -180.025C504.343 -310.917 550.647 -420.5 619.031 -486.553C653.198 -519.555 692.87 -541.683 739.558 -550.186C786.258 -558.691 840.064 -553.58 902.511 -531.961C1027.53 -488.68 1110.87 -428.826 1162.92 -355.669C1214.97 -282.513 1235.83 -195.931 1235.66 -99.0257C1235.32 94.8842 1150.82 329.74 1064.11 580.199Z" stroke="url(#paint38_linear_4_427)" stroke-width="2.41377"/>
<path d="M1046.07 614.972C990.956 735.459 940.203 848.236 887.537 946.215C834.869 1044.2 780.33 1127.3 717.681 1188.44C655.053 1249.57 584.339 1288.75 499.281 1298.95C414.2 1309.15 314.633 1290.36 194.289 1235.31C134.055 1207.76 86.3833 1185.27 49.4926 1166.07C12.5877 1146.85 -13.4582 1130.96 -30.4828 1116.61C-47.5141 1102.26 -55.3375 1089.6 -56.1743 1076.89C-57.0131 1064.14 -50.8609 1050.97 -39.0392 1035.51C8.1837 973.79 143.769 878.638 254.044 637.558C309.193 516.993 352.842 371.291 394.812 224.081C436.793 76.8332 477.093 -71.9176 525.558 -198.726C574.035 -325.565 630.601 -430.221 704.986 -489.436C742.15 -519.021 783.755 -537.256 831.042 -541.258C878.341 -545.26 931.412 -535.031 991.507 -507.542C1111.82 -452.51 1189.05 -384.965 1233.87 -307.168C1278.69 -229.372 1291.18 -141.192 1281.75 -44.7472C1262.88 148.243 1156.32 373.947 1046.07 614.972Z" stroke="url(#paint39_linear_4_427)" stroke-width="2.41377"/>
<path d="M1026.26 645.793C960.598 760.871 899.967 868.659 838.753 961.538C777.537 1054.42 715.788 1132.31 647.923 1187.61C580.081 1242.9 506.148 1275.6 420.519 1278.15C334.866 1280.7 237.378 1253.09 122.436 1187.51C64.9067 1154.68 19.4362 1128.02 -15.5899 1105.59C-50.6294 1083.16 -75.1503 1065 -90.8242 1049.19C-106.504 1033.37 -113.165 1020.06 -112.861 1007.32C-112.557 994.548 -105.252 981.981 -92.0964 967.647C-39.5446 910.391 104.004 827.741 235.389 597.485C301.096 482.332 357.595 341.116 412.557 198.247C467.533 55.3417 520.97 -89.2109 580.577 -211.179C640.199 -333.177 705.894 -432.357 785.274 -484.685C824.935 -510.829 868.003 -525.272 915.459 -525.03C962.926 -524.788 1014.87 -509.855 1072.27 -477.104C1187.18 -411.537 1258.06 -337.358 1295.75 -255.866C1333.44 -174.375 1337.99 -85.4319 1319.98 9.78418C1283.93 200.315 1157.62 415.589 1026.26 645.793Z" stroke="url(#paint40_linear_4_427)" stroke-width="2.41377"/>
<path d="M1004.44 673.938C929.025 782.874 859.256 884.985 790.201 972.192C721.144 1059.4 652.86 1131.63 580.446 1180.83C508.055 1230.01 431.56 1256.16 346.033 1251.26C260.483 1246.36 165.763 1210.38 56.9566 1135.05C2.49794 1097.35 -40.4839 1066.84 -73.4283 1041.45C-106.385 1016.05 -129.236 995.835 -143.476 978.721C-157.722 961.6 -163.201 947.767 -161.791 935.099C-160.378 922.401 -152.008 910.516 -137.657 897.38C-80.3279 844.908 69.8606 775.046 220.76 557.079C296.225 448.073 364.784 312.3 431.955 174.749C499.143 37.1621 564.94 -102.199 634.921 -218.525C704.92 -334.879 778.986 -427.975 862.614 -473.206C904.397 -495.804 948.557 -506.449 995.813 -502.084C1043.08 -497.719 1093.53 -478.327 1147.86 -440.712C1256.64 -365.407 1320.81 -285.348 1351.27 -200.888C1381.73 -116.43 1378.54 -27.428 1352.32 65.8623C1299.85 252.539 1155.31 456.021 1004.44 673.938Z" stroke="url(#paint41_linear_4_427)" stroke-width="2.41377"/>
<path d="M973.933 706.216C887.16 806.341 806.74 900.294 728.645 979.507C650.547 1058.72 574.84 1123.13 497.523 1164.19C420.231 1205.24 341.353 1222.95 256.861 1208.82C172.345 1194.68 82.0799 1148.65 -17.9267 1061.98C-67.9808 1018.6 -107.405 983.611 -137.405 954.805C-167.417 925.988 -187.943 903.413 -200.245 884.857C-212.553 866.293 -216.501 851.948 -213.728 839.508C-210.947 827.037 -201.339 816.129 -185.649 804.625C-122.974 758.671 33.899 705.49 207.521 505.152C294.351 404.962 377.214 277.415 458.89 147.949C540.586 18.4503 621.092 -112.963 703.263 -221.024C785.454 -329.111 869.169 -413.636 957.204 -449.541C1001.19 -467.481 1046.24 -473.279 1092.75 -463.821C1139.26 -454.361 1187.32 -429.619 1237.25 -386.339C1337.23 -299.694 1392.35 -213.154 1413.49 -125.892C1434.62 -38.6313 1421.81 49.5013 1385.63 139.402C1313.25 319.297 1147.52 505.923 973.933 706.216Z" stroke="url(#paint42_linear_4_427)" stroke-width="2.41377"/>
<path d="M948.753 728.231C854.096 820.938 766.275 908.013 681.974 980.587C597.671 1053.16 516.96 1111.18 436.548 1145.79C356.164 1180.39 276.103 1191.61 193.047 1170.62C109.967 1149.63 23.7597 1096.39 -68.8384 1001.84C-115.184 954.522 -151.62 916.431 -179.169 885.273C-206.729 854.103 -225.343 829.927 -236.09 810.429C-246.841 790.922 -249.605 776.303 -245.825 764.13C-242.036 751.928 -231.57 741.84 -214.993 731.656C-148.775 690.972 11.9147 650.773 201.311 465.277C296.029 372.509 389.027 252.152 480.998 129.785C572.993 7.3872 663.958 -117.017 754.675 -218.009C845.415 -319.027 935.75 -396.435 1026.42 -425.035C1071.73 -439.324 1117.1 -441.426 1162.68 -428.203C1208.27 -414.977 1254.14 -386.396 1300.38 -339.184C1392.95 -244.667 1440.82 -153.916 1454.76 -65.2198C1468.71 23.4746 1448.74 110.267 1405.35 196.915C1318.52 370.301 1138.11 542.776 948.753 728.231Z" stroke="url(#paint43_linear_4_427)" stroke-width="2.41377"/>
<path d="M925.869 745.362C824.974 831.239 731.292 911.973 642.132 978.488C552.971 1045 468.408 1097.24 385.777 1126.16C303.174 1155.07 222.526 1160.67 141.137 1133.94C59.7244 1107.2 -22.5581 1048.08 -108.334 947.302C-151.265 896.863 -184.954 856.324 -210.262 823.319C-235.58 790.302 -252.461 764.886 -261.821 744.685C-271.185 724.476 -272.922 709.699 -268.302 697.82C-263.671 685.912 -252.526 676.579 -235.279 667.576C-166.384 631.611 -3.28077 602.724 198.597 430.894C299.558 344.962 400.726 231.387 501.012 115.736C601.323 0.0557478 700.747 -117.698 798.29 -212.114C895.858 -306.554 991.374 -377.471 1083.82 -399.674C1130.01 -410.767 1175.42 -409.697 1219.97 -393.327C1264.52 -376.952 1308.29 -345.239 1351.12 -294.916C1436.87 -194.17 1478.29 -100.3 1486.01 -10.8471C1493.73 78.6039 1467.76 163.792 1418.43 247.201C1319.71 414.106 1127.7 573.571 925.869 745.362Z" stroke="url(#paint44_linear_4_427)" stroke-width="2.41377"/>
<path d="M899.299 762.362C792.092 840.216 692.472 913.498 598.456 972.952C504.438 1032.41 416.104 1077.98 331.492 1100.45C246.908 1122.92 166.069 1122.29 86.9789 1089.37C7.86694 1056.45 -69.6184 991.159 -147.38 884.079C-186.301 830.484 -216.769 787.471 -239.461 752.616C-262.161 717.748 -277.036 691.108 -284.814 670.246C-292.594 649.377 -293.188 634.51 -287.667 623.022C-282.133 611.506 -270.303 603.058 -252.414 595.41C-180.954 564.856 -16.111 548.612 198.397 392.835C305.674 314.931 415.287 209.482 524.179 101.895C633.099 -5.71897 741.293 -115.468 845.815 -202.094C950.364 -288.742 1051.06 -352.094 1144.94 -367.114C1191.84 -374.618 1237.04 -370.055 1280.19 -350.303C1323.35 -330.547 1364.55 -295.559 1403.38 -242.087C1481.12 -135.038 1515.19 -38.2582 1516 51.5237C1516.81 141.303 1484.35 224.238 1428.75 303.602C1317.48 462.412 1113.76 606.621 899.299 762.362Z" stroke="url(#paint45_linear_4_427)" stroke-width="2.41377"/>
<path d="M872.432 776.81C759.726 846.466 654.926 912.127 556.745 964.415C458.561 1016.7 367.079 1055.57 281.029 1071.68C195.007 1087.79 114.438 1081.14 38.0188 1042.43C-38.422 1003.7 -110.832 932.829 -180.405 820.256C-215.227 763.912 -242.408 718.75 -262.442 682.302C-282.483 645.84 -295.332 618.167 -301.534 596.784C-307.739 575.392 -307.225 560.523 -300.864 549.478C-294.488 538.406 -282.062 530.863 -263.653 524.567C-190.116 499.42 -24.5212 495.494 200.99 356.121C313.77 286.421 430.93 189.426 547.53 90.2465C664.16 -8.95908 780.226 -110.348 890.909 -188.951C1001.62 -267.574 1106.75 -323.253 1201.49 -331.241C1248.82 -335.231 1293.55 -327.316 1335.11 -304.406C1376.68 -281.491 1415.16 -243.533 1449.9 -187.318C1519.45 -74.7783 1546.23 24.2704 1540.35 113.863C1534.47 203.454 1495.93 283.742 1434.57 358.745C1311.79 508.83 1097.89 637.469 872.432 776.81Z" stroke="url(#paint46_linear_4_427)" stroke-width="2.41377"/>
<path d="M837.912 791.819C719.284 850.829 608.897 906.587 506.327 949.636C403.756 992.687 309.091 1022.99 221.925 1031.13C134.787 1039.26 55.1699 1025.25 -17.3709 979.677C-89.9318 934.094 -155.525 856.868 -214.465 738.381C-243.965 679.077 -266.883 631.61 -283.484 593.476C-300.092 555.327 -310.346 526.591 -314.558 504.729C-318.772 482.858 -316.894 468.098 -309.545 457.684C-302.179 447.245 -289.113 440.875 -270.203 436.297C-194.668 418.009 -29.4123 429.309 207.947 311.239C326.651 252.191 452.225 166.367 577.442 78.3159C702.691 -9.75815 827.578 -100.058 945.012 -168.163C1062.48 -236.285 1172.28 -282.073 1267.35 -281.325C1314.85 -280.952 1358.66 -268.961 1397.94 -242.331C1437.23 -215.695 1472.06 -174.363 1501.49 -115.195C1560.41 3.25718 1577.98 104.346 1563.9 193.021C1549.81 281.692 1504.06 358.101 1436.07 427.152C1300.02 565.325 1075.22 673.775 837.912 791.819Z" stroke="url(#paint47_linear_4_427)" stroke-width="2.41377"/>
<path d="M805.989 802.507C682.914 851.57 568.319 898.071 462.56 932.548C356.798 967.026 259.963 989.449 172.423 990.398C84.9118 991.347 6.71524 970.836 -61.8364 919.461C-130.407 868.071 -189.435 785.718 -238.441 662.789C-262.969 601.262 -281.909 552.071 -295.321 512.702C-308.738 473.318 -316.596 443.837 -318.998 421.702C-321.401 399.559 -318.317 385.004 -310.137 375.229C-301.938 365.43 -288.393 360.155 -269.171 357.146C-192.389 345.126 -28.6203 369.965 217.637 271.794C340.791 222.699 472.991 147.482 605.018 70.016C737.08 -7.47017 868.964 -87.2041 991.597 -145.431C1114.26 -203.672 1227.45 -240.284 1322.14 -231.728C1369.45 -227.454 1412.13 -211.904 1449.09 -182.137C1486.06 -152.363 1517.37 -108.309 1541.84 -46.9234C1590.84 75.9695 1600.04 178.16 1578.71 265.377C1557.39 352.592 1505.52 424.984 1432.09 488.215C1285.14 614.743 1052.19 704.358 805.989 802.507Z" stroke="url(#paint48_linear_4_427)" stroke-width="2.41377"/>
<path d="M777.86 809.584C651.62 849.81 534.02 888.079 426.085 914.981C318.147 941.884 219.968 957.394 132.58 952.142C45.2214 946.893 -31.3267 920.897 -96.0685 864.796C-160.828 808.68 -213.876 722.354 -254.054 596.263C-274.164 533.154 -289.575 482.746 -300.165 442.527C-310.76 402.291 -316.512 372.327 -317.34 350.078C-318.169 327.821 -314.062 313.52 -305.211 304.349C-296.339 295.155 -282.453 290.852 -263.067 289.212C-185.627 282.659 -24.0275 319.032 228.563 238.544C354.884 198.292 492.079 132.625 629.26 64.7013C766.477 -3.23943 903.675 -73.4347 1030.12 -122.832C1156.6 -172.242 1272.1 -200.747 1365.95 -185.508C1412.84 -177.894 1454.31 -159.361 1489.07 -127.052C1523.84 -94.7352 1551.95 -48.575 1572.01 14.3896C1612.18 140.443 1614.12 243.028 1586.68 328.517C1559.24 414.004 1502.36 482.541 1424.64 540.414C1269.11 656.219 1030.39 729.114 777.86 809.584Z" stroke="url(#paint49_linear_4_427)" stroke-width="2.41377"/>
<path d="M746.917 814.98C617.964 845.41 497.776 874.551 388.096 893.098C278.414 911.646 179.334 919.584 92.6066 907.648C5.90744 895.716 -68.4223 863.928 -128.673 803.029C-188.939 742.113 -235.213 651.974 -265.606 523.174C-280.818 458.709 -292.318 407.268 -299.795 366.355C-307.273 325.426 -310.711 295.108 -309.831 272.862C-308.951 250.606 -303.759 236.663 -294.231 228.197C-284.68 219.71 -270.506 216.485 -251.051 216.336C-173.336 215.739 -15.0014 264.394 243.016 203.509C372.052 173.06 513.877 118.104 655.862 60.8977C797.884 3.67692 940.06 -55.7932 1069.92 -95.3507C1199.82 -134.918 1317.16 -154.485 1409.56 -132.096C1455.73 -120.909 1495.66 -99.2515 1527.84 -64.3724C1560.03 -29.4851 1584.52 18.6947 1599.7 83.0122C1630.08 211.774 1624.15 314.206 1590.24 397.339C1556.32 480.47 1494.36 544.445 1412.43 596.189C1248.48 699.73 1004.88 754.109 746.917 814.98Z" stroke="url(#paint50_linear_4_427)" stroke-width="2.41377"/>
<path d="M719.591 817.743C588.889 839.458 467.017 860.475 356.341 871.627C245.662 882.78 146.273 884.056 60.5405 866.332C-25.1636 848.614 -97.1948 811.914 -153.226 747.112C-209.273 682.293 -249.4 589.254 -271.089 458.706C-281.945 393.366 -289.969 341.27 -294.685 299.947C-299.403 258.609 -300.8 228.13 -298.431 205.992C-296.06 183.846 -289.946 170.281 -279.872 162.473C-269.773 154.646 -255.415 152.379 -235.993 153.534C-158.413 158.149 -3.69699 217.311 257.822 173.862C388.609 152.133 533.799 106.81 679.3 59.2523C824.839 11.6824 970.683 -38.1214 1102.91 -68.8831C1235.16 -99.6524 1353.55 -111.308 1444.25 -82.7733C1489.56 -68.5168 1527.95 -44.2304 1557.72 -7.27219C1587.49 29.6947 1608.7 79.4083 1619.53 144.599C1641.21 275.108 1628.43 376.912 1589.02 457.584C1549.6 538.254 1483.49 597.931 1398.28 644.065C1227.75 736.38 981.051 774.304 719.591 817.743Z" stroke="url(#paint51_linear_4_427)" stroke-width="2.41377"/>
</g>
</g>
<defs>
<linearGradient id="paint0_linear_4_427" x1="304.838" y1="278.662" x2="1079.36" y2="539.865" gradientUnits="userSpaceOnUse">
<stop stop-color="white"/>
<stop offset="1" stop-color="white" stop-opacity="0.36"/>
</linearGradient>
<linearGradient id="paint1_linear_4_427" x1="320.801" y1="238.482" x2="1063.4" y2="580.044" gradientUnits="userSpaceOnUse">
<stop stop-color="white"/>
<stop offset="1" stop-color="white" stop-opacity="0.36"/>
</linearGradient>
<linearGradient id="paint2_linear_4_427" x1="335.266" y1="210.018" x2="1048.93" y2="608.509" gradientUnits="userSpaceOnUse">
<stop stop-color="white"/>
<stop offset="1" stop-color="white" stop-opacity="0.36"/>
</linearGradient>
<linearGradient id="paint3_linear_4_427" x1="349.619" y1="186.249" x2="1034.58" y2="632.28" gradientUnits="userSpaceOnUse">
<stop stop-color="white"/>
<stop offset="1" stop-color="white" stop-opacity="0.36"/>
</linearGradient>
<linearGradient id="paint4_linear_4_427" x1="365.584" y1="163.467" x2="1018.61" y2="655.062" gradientUnits="userSpaceOnUse">
<stop stop-color="white"/>
<stop offset="1" stop-color="white" stop-opacity="0.36"/>
</linearGradient>
<linearGradient id="paint5_linear_4_427" x1="380.258" y1="145.098" x2="1003.94" y2="673.43" gradientUnits="userSpaceOnUse">
<stop stop-color="white"/>
<stop offset="1" stop-color="white" stop-opacity="0.36"/>
</linearGradient>
<linearGradient id="paint6_linear_4_427" x1="399.904" y1="123.519" x2="984.295" y2="695.009" gradientUnits="userSpaceOnUse">
<stop stop-color="white"/>
<stop offset="1" stop-color="white" stop-opacity="0.36"/>
</linearGradient>
<linearGradient id="paint7_linear_4_427" x1="423.183" y1="101.511" x2="961.018" y2="717.017" gradientUnits="userSpaceOnUse">
<stop stop-color="white"/>
<stop offset="1" stop-color="white" stop-opacity="0.36"/>
</linearGradient>
<linearGradient id="paint8_linear_4_427" x1="448.746" y1="80.9238" x2="935.453" y2="737.605" gradientUnits="userSpaceOnUse">
<stop stop-color="white"/>
<stop offset="1" stop-color="white" stop-opacity="0.36"/>
</linearGradient>
<linearGradient id="paint9_linear_4_427" x1="473.578" y1="63.8987" x2="910.621" y2="754.628" gradientUnits="userSpaceOnUse">
<stop stop-color="white"/>
<stop offset="1" stop-color="white" stop-opacity="0.36"/>
</linearGradient>
<linearGradient id="paint10_linear_4_427" x1="501.439" y1="47.7714" x2="882.76" y2="770.757" gradientUnits="userSpaceOnUse">
<stop stop-color="white"/>
<stop offset="1" stop-color="white" stop-opacity="0.36"/>
</linearGradient>
<linearGradient id="paint11_linear_4_427" x1="531.201" y1="33.5777" x2="853.001" y2="784.949" gradientUnits="userSpaceOnUse">
<stop stop-color="white"/>
<stop offset="1" stop-color="white" stop-opacity="0.36"/>
</linearGradient>
<linearGradient id="paint12_linear_4_427" x1="559.555" y1="22.6631" x2="824.645" y2="795.865" gradientUnits="userSpaceOnUse">
<stop stop-color="white"/>
<stop offset="1" stop-color="white" stop-opacity="0.36"/>
</linearGradient>
<linearGradient id="paint13_linear_4_427" x1="590.888" y1="13.3028" x2="793.312" y2="805.223" gradientUnits="userSpaceOnUse">
<stop stop-color="white"/>
<stop offset="1" stop-color="white" stop-opacity="0.36"/>
</linearGradient>
<linearGradient id="paint14_linear_4_427" x1="620.398" y1="6.91054" x2="763.801" y2="811.615" gradientUnits="userSpaceOnUse">
<stop stop-color="white"/>
<stop offset="1" stop-color="white" stop-opacity="0.36"/>
</linearGradient>
<linearGradient id="paint15_linear_4_427" x1="649.796" y1="2.7674" x2="734.404" y2="815.759" gradientUnits="userSpaceOnUse">
<stop stop-color="white"/>
<stop offset="1" stop-color="white" stop-opacity="0.36"/>
</linearGradient>
<linearGradient id="paint16_linear_4_427" x1="682.968" y1="0.673576" x2="701.232" y2="817.852" gradientUnits="userSpaceOnUse">
<stop stop-color="white"/>
<stop offset="1" stop-color="white" stop-opacity="0.36"/>
</linearGradient>
<linearGradient id="paint17_linear_4_427" x1="722.213" y1="1.68274" x2="661.989" y2="816.843" gradientUnits="userSpaceOnUse">
<stop stop-color="white"/>
<stop offset="1" stop-color="white" stop-opacity="0.36"/>
</linearGradient>
<linearGradient id="paint18_linear_4_427" x1="756.72" y1="5.71347" x2="627.48" y2="812.814" gradientUnits="userSpaceOnUse">
<stop stop-color="white"/>
<stop offset="1" stop-color="white" stop-opacity="0.36"/>
</linearGradient>
<linearGradient id="paint19_linear_4_427" x1="790.647" y1="12.6314" x2="593.555" y2="805.896" gradientUnits="userSpaceOnUse">
<stop stop-color="white"/>
<stop offset="1" stop-color="white" stop-opacity="0.36"/>
</linearGradient>
<linearGradient id="paint20_linear_4_427" x1="827.219" y1="23.555" x2="556.982" y2="794.973" gradientUnits="userSpaceOnUse">
<stop stop-color="white"/>
<stop offset="1" stop-color="white" stop-opacity="0.36"/>
</linearGradient>
<linearGradient id="paint21_linear_4_427" x1="860.052" y1="36.6765" x2="524.15" y2="781.85" gradientUnits="userSpaceOnUse">
<stop stop-color="white"/>
<stop offset="1" stop-color="white" stop-opacity="0.36"/>
</linearGradient>
<linearGradient id="paint22_linear_4_427" x1="887.587" y1="50.3579" x2="496.615" y2="768.17" gradientUnits="userSpaceOnUse">
<stop stop-color="white"/>
<stop offset="1" stop-color="white" stop-opacity="0.36"/>
</linearGradient>
<linearGradient id="paint23_linear_4_427" x1="921.019" y1="70.7008" x2="463.183" y2="747.828" gradientUnits="userSpaceOnUse">
<stop stop-color="white"/>
<stop offset="1" stop-color="white" stop-opacity="0.36"/>
</linearGradient>
<linearGradient id="paint24_linear_4_427" x1="949.542" y1="91.8478" x2="434.66" y2="726.679" gradientUnits="userSpaceOnUse">
<stop stop-color="white"/>
<stop offset="1" stop-color="white" stop-opacity="0.36"/>
</linearGradient>
<linearGradient id="paint25_linear_4_427" x1="976.593" y1="115.848" x2="407.609" y2="702.678" gradientUnits="userSpaceOnUse">
<stop stop-color="white"/>
<stop offset="1" stop-color="white" stop-opacity="0.36"/>
</linearGradient>
<linearGradient id="paint26_linear_4_427" x1="1003.33" y1="144.376" x2="380.872" y2="674.152" gradientUnits="userSpaceOnUse">
<stop stop-color="white"/>
<stop offset="1" stop-color="white" stop-opacity="0.36"/>
</linearGradient>
<linearGradient id="paint27_linear_4_427" x1="1026.37" y1="174.127" x2="357.826" y2="644.399" gradientUnits="userSpaceOnUse">
<stop stop-color="white"/>
<stop offset="1" stop-color="white" stop-opacity="0.36"/>
</linearGradient>
<linearGradient id="paint28_linear_4_427" x1="1049.33" y1="210.727" x2="334.873" y2="607.799" gradientUnits="userSpaceOnUse">
<stop stop-color="white"/>
<stop offset="1" stop-color="white" stop-opacity="0.36"/>
</linearGradient>
<linearGradient id="paint29_linear_4_427" x1="1066.5" y1="245.401" x2="317.697" y2="573.126" gradientUnits="userSpaceOnUse">
<stop stop-color="white"/>
<stop offset="1" stop-color="white" stop-opacity="0.36"/>
</linearGradient>
<linearGradient id="paint30_linear_4_427" x1="1080.94" y1="283.435" x2="303.261" y2="535.092" gradientUnits="userSpaceOnUse">
<stop stop-color="white"/>
<stop offset="1" stop-color="white" stop-opacity="0.36"/>
</linearGradient>
<linearGradient id="paint31_linear_4_427" x1="1089.62" y1="314.35" x2="294.583" y2="504.177" gradientUnits="userSpaceOnUse">
<stop stop-color="white"/>
<stop offset="1" stop-color="white" stop-opacity="0.36"/>
</linearGradient>
<linearGradient id="paint32_linear_4_427" x1="1095.46" y1="343.464" x2="288.741" y2="475.061" gradientUnits="userSpaceOnUse">
<stop stop-color="white"/>
<stop offset="1" stop-color="white" stop-opacity="0.36"/>
</linearGradient>
<linearGradient id="paint33_linear_4_427" x1="1098.87" y1="369.666" x2="285.331" y2="448.86" gradientUnits="userSpaceOnUse">
<stop stop-color="white"/>
<stop offset="1" stop-color="white" stop-opacity="0.36"/>
</linearGradient>
<linearGradient id="paint34_linear_4_427" x1="1100.74" y1="402.802" x2="283.46" y2="415.726" gradientUnits="userSpaceOnUse">
<stop stop-color="white"/>
<stop offset="1" stop-color="white" stop-opacity="0.36"/>
</linearGradient>
<linearGradient id="paint35_linear_4_427" x1="1098.95" y1="448.043" x2="285.253" y2="370.484" gradientUnits="userSpaceOnUse">
<stop stop-color="white"/>
<stop offset="1" stop-color="white" stop-opacity="0.36"/>
</linearGradient>
<linearGradient id="paint36_linear_4_427" x1="1094.53" y1="480.499" x2="289.664" y2="338.027" gradientUnits="userSpaceOnUse">
<stop stop-color="white"/>
<stop offset="1" stop-color="white" stop-opacity="0.36"/>
</linearGradient>
<linearGradient id="paint37_linear_4_427" x1="1087.04" y1="514.389" x2="297.16" y2="304.136" gradientUnits="userSpaceOnUse">
<stop stop-color="white"/>
<stop offset="1" stop-color="white" stop-opacity="0.36"/>
</linearGradient>
<linearGradient id="paint38_linear_4_427" x1="1078.3" y1="542.966" x2="305.897" y2="275.56" gradientUnits="userSpaceOnUse">
<stop stop-color="white"/>
<stop offset="1" stop-color="white" stop-opacity="0.36"/>
</linearGradient>
<linearGradient id="paint39_linear_4_427" x1="1063.75" y1="579.266" x2="320.445" y2="239.26" gradientUnits="userSpaceOnUse">
<stop stop-color="white"/>
<stop offset="1" stop-color="white" stop-opacity="0.36"/>
</linearGradient>
<linearGradient id="paint40_linear_4_427" x1="1047.07" y1="611.811" x2="337.13" y2="206.717" gradientUnits="userSpaceOnUse">
<stop stop-color="white"/>
<stop offset="1" stop-color="white" stop-opacity="0.36"/>
</linearGradient>
<linearGradient id="paint41_linear_4_427" x1="1028.12" y1="641.893" x2="356.077" y2="176.633" gradientUnits="userSpaceOnUse">
<stop stop-color="white"/>
<stop offset="1" stop-color="white" stop-opacity="0.36"/>
</linearGradient>
<linearGradient id="paint42_linear_4_427" x1="1000.95" y1="676.924" x2="383.254" y2="141.602" gradientUnits="userSpaceOnUse">
<stop stop-color="white"/>
<stop offset="1" stop-color="white" stop-opacity="0.36"/>
</linearGradient>
<linearGradient id="paint43_linear_4_427" x1="978.067" y1="701.242" x2="406.134" y2="117.285" gradientUnits="userSpaceOnUse">
<stop stop-color="white"/>
<stop offset="1" stop-color="white" stop-opacity="0.36"/>
</linearGradient>
<linearGradient id="paint44_linear_4_427" x1="956.995" y1="720.484" x2="427.202" y2="98.0427" gradientUnits="userSpaceOnUse">
<stop stop-color="white"/>
<stop offset="1" stop-color="white" stop-opacity="0.36"/>
</linearGradient>
<linearGradient id="paint45_linear_4_427" x1="932.248" y1="739.955" x2="451.95" y2="78.572" gradientUnits="userSpaceOnUse">
<stop stop-color="white"/>
<stop offset="1" stop-color="white" stop-opacity="0.36"/>
</linearGradient>
<linearGradient id="paint46_linear_4_427" x1="906.959" y1="756.919" x2="477.239" y2="61.6096" gradientUnits="userSpaceOnUse">
<stop stop-color="white"/>
<stop offset="1" stop-color="white" stop-opacity="0.36"/>
</linearGradient>
<linearGradient id="paint47_linear_4_427" x1="874.119" y1="775.183" x2="510.078" y2="43.3444" gradientUnits="userSpaceOnUse">
<stop stop-color="white"/>
<stop offset="1" stop-color="white" stop-opacity="0.36"/>
</linearGradient>
<linearGradient id="paint48_linear_4_427" x1="843.441" y1="788.901" x2="540.756" y2="29.628" gradientUnits="userSpaceOnUse">
<stop stop-color="white"/>
<stop offset="1" stop-color="white" stop-opacity="0.36"/>
</linearGradient>
<linearGradient id="paint49_linear_4_427" x1="816.181" y1="798.664" x2="568.018" y2="19.8647" gradientUnits="userSpaceOnUse">
<stop stop-color="white"/>
<stop offset="1" stop-color="white" stop-opacity="0.36"/>
</linearGradient>
<linearGradient id="paint50_linear_4_427" x1="785.962" y1="807.031" x2="598.238" y2="11.4978" gradientUnits="userSpaceOnUse">
<stop stop-color="white"/>
<stop offset="1" stop-color="white" stop-opacity="0.36"/>
</linearGradient>
<linearGradient id="paint51_linear_4_427" x1="759.082" y1="812.429" x2="625.118" y2="6.09975" gradientUnits="userSpaceOnUse">
<stop stop-color="white"/>
<stop offset="1" stop-color="white" stop-opacity="0.36"/>
</linearGradient>
</defs>
</svg>
